<?xml version="1.0" encoding="utf-8" standalone="no"?>
<!DOCTYPE svg PUBLIC "-//W3C//DTD SVG 1.1//EN"
  "http://www.w3.org/Graphics/SVG/1.1/DTD/svg11.dtd">
<svg xmlns:xlink="http://www.w3.org/1999/xlink" width="720pt" height="587.52pt" viewBox="0 0 720 587.52" xmlns="http://www.w3.org/2000/svg" version="1.1">
 <metadata>
  <rdf:RDF xmlns:dc="http://purl.org/dc/elements/1.1/" xmlns:cc="http://creativecommons.org/ns#" xmlns:rdf="http://www.w3.org/1999/02/22-rdf-syntax-ns#">
   <cc:Work>
    <dc:type rdf:resource="http://purl.org/dc/dcmitype/StillImage"/>
    <dc:date>2023-06-28T18:22:32.240577</dc:date>
    <dc:format>image/svg+xml</dc:format>
    <dc:creator>
     <cc:Agent>
      <dc:title>Matplotlib v3.5.1, https://matplotlib.org/</dc:title>
     </cc:Agent>
    </dc:creator>
   </cc:Work>
  </rdf:RDF>
 </metadata>
 <defs>
  <style type="text/css">*{stroke-linejoin: round; stroke-linecap: butt}</style>
 </defs>
 <g id="figure_1">
  <g id="patch_1">
   <path d="M 0 587.52 
L 720 587.52 
L 720 0 
L 0 0 
L 0 587.52 
z
" style="fill: none"/>
  </g>
  <g id="axes_1">
   <g id="patch_2">
    <path d="M 90 166.932313 
L 343.636364 166.932313 
L 343.636364 70.5024 
L 90 70.5024 
z
" style="fill: #ffffff"/>
   </g>
   <g id="line2d_1">
    <path d="M 90 114.625015 
L 99.540778 115.951962 
L 113.790004 117.684129 
L 141.668945 121.034758 
L 152.200999 122.573942 
L 155.174749 122.910717 
L 156.289906 123.056659 
L 157.281166 123.402218 
L 158.64413 123.812392 
L 160.131005 124.414138 
L 162.237407 125.731611 
L 163.848194 126.722327 
L 165.830699 127.698085 
L 170.415236 129.336846 
L 172.645549 129.486326 
L 175.743211 129.505234 
L 177.601805 129.145485 
L 180.947274 128.090495 
L 183.177595 127.697318 
L 184.416655 127.396346 
L 186.151353 127.152816 
L 186.894791 126.955064 
L 189.001192 126.475481 
L 190.116348 126.373215 
L 192.098854 126.333045 
L 194.453078 125.828197 
L 198.046363 124.408923 
L 199.657142 123.473794 
L 203.126522 122.52434 
L 205.480747 122.129227 
L 206.967622 121.703154 
L 207.958875 121.591209 
L 209.693565 121.640216 
L 210.808721 121.501171 
L 211.799966 121.483524 
L 212.91513 121.707987 
L 215.888881 122.14339 
L 216.880134 122.329766 
L 217.871379 122.480061 
L 219.72998 122.636783 
L 220.473418 122.621595 
L 221.464663 122.81034 
L 223.07545 123.053754 
L 224.31451 123.339736 
L 227.907798 124.050353 
L 228.775143 124.328531 
L 230.509834 125.234865 
L 231.996709 126.248295 
L 234.350929 127.998182 
L 235.218274 128.621738 
L 236.333431 129.23169 
L 237.20078 129.55829 
L 242.28094 131.996473 
L 243.891726 132.54213 
L 245.25469 132.797821 
L 247.237196 132.464176 
L 248.600167 132.236901 
L 249.591416 131.938096 
L 250.954384 131.262013 
L 251.945636 130.784677 
L 253.060793 130.232296 
L 254.795483 129.648496 
L 256.158455 129.412925 
L 258.76049 128.491452 
L 260.247365 127.514897 
L 261.858148 126.311339 
L 264.336276 123.895169 
L 266.070967 121.753545 
L 270.6555 115.804552 
L 272.142379 113.846176 
L 273.629258 112.314959 
L 277.470354 108.757906 
L 279.576763 106.416332 
L 282.550521 103.917462 
L 284.037389 103.145606 
L 284.904738 102.860493 
L 286.143798 102.476426 
L 287.630673 101.735044 
L 289.241452 101.137577 
L 290.97615 100.590479 
L 294.941153 98.676421 
L 296.05631 98.520181 
L 299.401787 98.915562 
L 302.251626 100.26543 
L 303.986324 101.263868 
L 304.853657 101.760731 
L 306.588355 102.556341 
L 307.455705 103.231433 
L 309.809921 104.793081 
L 312.783672 106.250311 
L 313.527117 106.358071 
L 314.51837 106.548293 
L 315.385711 107.016342 
L 319.226803 109.067354 
L 321.704931 109.97472 
L 325.174311 111.001669 
L 329.634945 112.084831 
L 335.210735 113.207457 
L 342.521199 114.436126 
L 343.636364 114.60638 
L 343.636364 114.60638 
" clip-path="url(#pd37384e9b0)" style="fill: none; stroke: #ff0000; stroke-width: 1.5; stroke-linecap: square"/>
   </g>
   <g id="line2d_2">
    <path d="M 90 118.717357 
L 155.422572 118.620273 
L 158.272411 118.171364 
L 161.865688 117.80406 
L 162.98086 118.016235 
L 164.096009 118.377846 
L 169.547887 120.818919 
L 171.034762 121.807444 
L 178.221347 125.867885 
L 179.708214 126.403936 
L 180.575555 126.594969 
L 181.566808 126.74118 
L 183.921032 127.368603 
L 186.027442 127.735919 
L 187.514317 128.050285 
L 189.001192 128.186561 
L 190.364164 128.260617 
L 191.107609 128.4371 
L 195.939953 129.791813 
L 196.807295 130.070522 
L 197.302925 130.179024 
L 198.913704 130.266508 
L 204.613397 129.188763 
L 206.843718 128.838457 
L 209.44575 128.043061 
L 211.304344 127.571949 
L 213.039034 127.013549 
L 215.517162 126.646691 
L 216.384503 126.528802 
L 217.004037 126.450536 
L 218.614816 126.395602 
L 220.845137 126.130351 
L 221.588574 126.001252 
L 223.571072 125.750057 
L 224.562325 125.649121 
L 227.040453 125.34063 
L 227.783891 125.192957 
L 229.642488 124.67402 
L 231.129364 124.413486 
L 231.996709 124.404223 
L 232.864054 124.514571 
L 234.474837 124.866386 
L 236.209527 125.847104 
L 236.952965 126.212752 
L 238.192029 126.780583 
L 241.537502 128.789171 
L 243.52 130.511726 
L 244.882975 131.929145 
L 245.75032 132.926761 
L 250.582669 137.235857 
L 252.689074 138.615413 
L 256.158455 140.498913 
L 257.769241 141.809969 
L 262.725493 146.046166 
L 264.584087 147.337032 
L 265.451433 147.834571 
L 267.186119 148.477586 
L 268.549091 148.722143 
L 270.531592 148.726037 
L 271.27503 148.613409 
L 272.514098 148.077844 
L 276.355197 146.542664 
L 277.718165 146.149282 
L 278.833321 145.597747 
L 281.683164 143.353359 
L 285.895983 139.649209 
L 286.639428 139.169865 
L 288.126303 138.054757 
L 289.984897 136.627213 
L 291.223957 135.901846 
L 292.463025 134.93476 
L 294.073804 133.360318 
L 295.312864 131.911698 
L 296.923651 129.987889 
L 299.773505 126.758392 
L 302.003818 124.608692 
L 304.358035 122.952968 
L 305.59711 122.280176 
L 307.455705 121.055502 
L 308.942572 120.607561 
L 312.535864 120.038162 
L 313.527117 119.965152 
L 314.766177 119.401559 
L 315.385711 119.120502 
L 316.376964 118.871357 
L 319.97024 118.717357 
L 343.636364 118.717357 
L 343.636364 118.717357 
" clip-path="url(#pd37384e9b0)" style="fill: none; stroke: #1f77b4; stroke-width: 1.5; stroke-linecap: square"/>
   </g>
   <g id="matplotlib.axis_1"/>
   <g id="matplotlib.axis_2"/>
   <g id="patch_3">
    <path d="M 90 166.932313 
L 90 70.5024 
" style="fill: none; stroke: #000000; stroke-width: 0.8; stroke-linejoin: miter; stroke-linecap: square"/>
   </g>
   <g id="patch_4">
    <path d="M 343.636364 166.932313 
L 343.636364 70.5024 
" style="fill: none; stroke: #000000; stroke-width: 0.8; stroke-linejoin: miter; stroke-linecap: square"/>
   </g>
   <g id="patch_5">
    <path d="M 90 166.932313 
L 343.636364 166.932313 
" style="fill: none; stroke: #000000; stroke-width: 0.8; stroke-linejoin: miter; stroke-linecap: square"/>
   </g>
   <g id="patch_6">
    <path d="M 90 70.5024 
L 343.636364 70.5024 
" style="fill: none; stroke: #000000; stroke-width: 0.8; stroke-linejoin: miter; stroke-linecap: square"/>
   </g>
  </g>
  <g id="axes_2">
   <g id="patch_7">
    <path d="M 394.363636 166.932313 
L 648 166.932313 
L 648 70.5024 
L 394.363636 70.5024 
z
" style="fill: #ffffff"/>
   </g>
   <g id="line2d_3">
    <path d="M 394.363636 118.150628 
L 417.162411 117.760525 
L 435.252736 117.252576 
L 446.404316 116.739883 
L 453.095255 116.233826 
L 456.812443 115.762763 
L 458.547125 115.372314 
L 460.281823 114.884355 
L 462.264329 114.628122 
L 465.981517 114.708943 
L 472.300744 115.459512 
L 474.654969 115.639863 
L 478.496068 115.854527 
L 480.230759 116.052206 
L 481.469819 116.15647 
L 486.797794 116.537724 
L 489.523737 116.878646 
L 492.745302 117.103786 
L 494.975615 116.851993 
L 498.692803 116.308159 
L 503.029525 115.972742 
L 509.844383 115.980967 
L 512.198599 116.168485 
L 515.915795 116.450728 
L 519.013457 116.537094 
L 522.358926 116.65745 
L 524.217521 117.077152 
L 526.200026 117.86458 
L 528.925961 119.154602 
L 532.023623 120.523501 
L 533.510498 121.144723 
L 535.493 122.019867 
L 542.183946 124.81866 
L 544.290356 125.557401 
L 547.511917 126.314298 
L 556.061458 127.79072 
L 557.300522 127.678164 
L 565.850066 125.606466 
L 570.558507 123.961138 
L 574.647417 122.192304 
L 577.497264 120.973141 
L 579.851488 120.077991 
L 581.586175 119.519907 
L 587.781491 118.360659 
L 592.366028 118.223869 
L 594.472437 118.254369 
L 596.454943 118.275462 
L 598.561352 118.257886 
L 600.419946 118.452986 
L 605.004483 119.015059 
L 607.234796 119.11352 
L 608.597768 118.968509 
L 611.323703 118.494809 
L 613.92575 118.258052 
L 618.138561 118.074282 
L 619.997155 117.939915 
L 621.979652 117.834743 
L 626.192471 118.200352 
L 633.379047 118.264232 
L 648 118.152177 
L 648 118.152177 
" clip-path="url(#p78cb3a60fc)" style="fill: none; stroke: #ff0000; stroke-width: 1.5; stroke-linecap: square"/>
   </g>
   <g id="line2d_4">
    <path d="M 394.363636 118.717356 
L 459.166667 118.611245 
L 467.096673 116.481351 
L 470.070424 116.100179 
L 480.354662 115.356888 
L 482.33716 115.362564 
L 489.523737 115.116782 
L 490.886708 115.233961 
L 495.223422 115.818647 
L 496.834209 115.761771 
L 499.80796 115.518522 
L 503.029525 115.036795 
L 512.446415 113.440945 
L 519.632983 112.344461 
L 521.863296 111.711654 
L 523.597987 111.016742 
L 525.208773 110.390611 
L 526.943464 109.932067 
L 528.306427 109.720164 
L 530.536748 109.598209 
L 535.616908 109.809001 
L 537.971128 110.16013 
L 540.944882 110.734684 
L 544.04254 111.795197 
L 548.50317 113.533528 
L 553.459426 115.404494 
L 554.822397 116.125434 
L 556.185365 117.018719 
L 558.167867 118.249876 
L 560.274276 119.247942 
L 563.24803 120.297878 
L 566.345692 121.411832 
L 567.336941 121.686264 
L 574.151791 123.045669 
L 577.125545 123.030842 
L 580.966645 122.525183 
L 583.320865 122.074171 
L 585.179459 121.707987 
L 590.38353 120.488052 
L 594.720252 119.82647 
L 597.446196 119.552703 
L 600.915576 119.053052 
L 604.261046 119.101867 
L 607.606515 119.546765 
L 609.465109 119.757582 
L 613.677927 119.596854 
L 620.864504 119.077844 
L 623.466528 118.717356 
L 648 118.717357 
L 648 118.717357 
" clip-path="url(#p78cb3a60fc)" style="fill: none; stroke: #1f77b4; stroke-width: 1.5; stroke-linecap: square"/>
   </g>
   <g id="matplotlib.axis_3"/>
   <g id="matplotlib.axis_4"/>
   <g id="patch_8">
    <path d="M 394.363636 166.932313 
L 394.363636 70.5024 
" style="fill: none; stroke: #000000; stroke-width: 0.8; stroke-linejoin: miter; stroke-linecap: square"/>
   </g>
   <g id="patch_9">
    <path d="M 648 166.932313 
L 648 70.5024 
" style="fill: none; stroke: #000000; stroke-width: 0.8; stroke-linejoin: miter; stroke-linecap: square"/>
   </g>
   <g id="patch_10">
    <path d="M 394.363636 166.932313 
L 648 166.932313 
" style="fill: none; stroke: #000000; stroke-width: 0.8; stroke-linejoin: miter; stroke-linecap: square"/>
   </g>
   <g id="patch_11">
    <path d="M 394.363636 70.5024 
L 648 70.5024 
" style="fill: none; stroke: #000000; stroke-width: 0.8; stroke-linejoin: miter; stroke-linecap: square"/>
   </g>
  </g>
  <g id="axes_3">
   <g id="patch_12">
    <path d="M 90 282.648209 
L 343.636364 282.648209 
L 343.636364 186.218296 
L 90 186.218296 
z
" style="fill: #ffffff"/>
   </g>
   <g id="line2d_5">
    <path d="M 90 234.239739 
L 140.305982 235.16308 
L 149.970686 235.175727 
L 153.563963 234.993709 
L 155.174749 234.716678 
L 157.528974 234.293168 
L 158.396323 234.305829 
L 161.246162 234.842429 
L 165.335076 236.073779 
L 168.308835 237.490016 
L 169.671798 238.318817 
L 171.654304 239.09882 
L 173.636802 239.741701 
L 174.751966 240.161776 
L 178.964776 241.350455 
L 180.699467 241.554087 
L 183.177595 241.563637 
L 185.284004 241.365944 
L 186.275257 241.409937 
L 187.514317 241.585347 
L 189.249007 241.88144 
L 189.992445 241.944268 
L 191.97495 241.843909 
L 192.966203 241.656155 
L 197.426829 240.238314 
L 198.913704 239.750967 
L 201.020113 239.281286 
L 201.763551 239.139214 
L 202.6309 238.99476 
L 206.100273 238.441017 
L 207.958875 238.173917 
L 210.808721 237.149391 
L 213.039034 235.830832 
L 214.773725 234.685325 
L 217.375756 233.267779 
L 219.853884 232.182488 
L 221.588574 231.520617 
L 223.818887 230.778897 
L 225.429674 230.050474 
L 229.146862 229.450053 
L 240.17453 228.816108 
L 241.413594 228.505853 
L 242.528751 228.381205 
L 243.891726 228.307876 
L 245.006883 228.442904 
L 254.052046 230.612262 
L 257.0258 231.096296 
L 260.123462 231.696546 
L 262.601586 231.862142 
L 264.088465 231.790521 
L 265.079714 231.921089 
L 266.442685 232.335415 
L 267.557842 232.521858 
L 269.540343 232.765407 
L 271.646756 232.901627 
L 274.124881 233.099526 
L 277.470354 232.871597 
L 278.461603 232.716668 
L 279.824574 232.553911 
L 281.187546 232.366825 
L 282.674425 232.19893 
L 283.789581 232.160591 
L 287.506769 232.833426 
L 288.374118 233.077012 
L 291.843484 233.452308 
L 293.45427 233.309771 
L 295.312864 233.032928 
L 298.162719 233.16694 
L 299.649602 233.485302 
L 304.358035 234.214037 
L 305.844918 234.469241 
L 306.836163 234.449924 
L 309.438202 234.29334 
L 310.677255 233.984289 
L 313.031479 233.26219 
L 313.898828 233.064276 
L 315.881333 232.85653 
L 316.996482 233.028152 
L 318.235558 233.322806 
L 320.713678 233.550848 
L 326.78509 233.818662 
L 340.538694 234.171336 
L 343.636364 234.237125 
L 343.636364 234.237125 
" clip-path="url(#p2f88ecabdb)" style="fill: none; stroke: #ff0000; stroke-width: 1.5; stroke-linecap: square"/>
   </g>
   <g id="line2d_6">
    <path d="M 90 234.433252 
L 155.422572 234.342367 
L 156.785536 234.011308 
L 161.617881 232.247068 
L 162.609141 232.081536 
L 165.087261 231.633793 
L 166.574137 231.326094 
L 169.176168 231.22532 
L 170.167429 231.472625 
L 172.149934 231.990608 
L 173.884617 232.289503 
L 178.716961 234.034376 
L 179.956029 234.583427 
L 183.797129 236.206135 
L 188.257754 237.221783 
L 190.24026 238.166246 
L 194.576982 240.267444 
L 197.426829 241.193984 
L 198.7898 241.35735 
L 199.904957 241.502927 
L 201.391832 241.755016 
L 202.754803 241.966296 
L 206.967622 242.789961 
L 212.91513 244.772646 
L 213.658568 244.861083 
L 216.632319 244.617676 
L 218.243097 244.284763 
L 220.349507 243.87288 
L 224.686229 242.866597 
L 226.668734 241.969225 
L 230.757645 240.491606 
L 231.996709 240.155663 
L 234.227022 239.572014 
L 235.961712 239.261516 
L 238.687655 238.576522 
L 240.422346 238.422361 
L 241.909221 237.840252 
L 244.01563 236.855498 
L 245.626413 236.082502 
L 246.36985 235.862854 
L 249.963135 234.92663 
L 251.945636 234.788497 
L 258.512679 234.377395 
L 263.592839 234.579849 
L 266.070967 234.206453 
L 269.168621 234.490306 
L 272.266287 234.693491 
L 273.753162 234.881953 
L 275.61176 235.136597 
L 277.842073 235.347216 
L 279.700667 235.356993 
L 280.815823 235.216274 
L 282.674425 234.996201 
L 287.011147 234.065766 
L 288.002392 234.046559 
L 289.984897 234.273867 
L 291.347861 234.50261 
L 293.9499 234.803966 
L 296.180213 234.485471 
L 299.649602 234.061544 
L 303.738509 234.247729 
L 305.473199 234.515279 
L 311.172885 235.712577 
L 312.288049 235.716976 
L 313.403205 235.542336 
L 315.633518 234.950956 
L 317.368209 234.436797 
L 324.30697 234.433252 
L 343.636364 234.433252 
L 343.636364 234.433252 
" clip-path="url(#p2f88ecabdb)" style="fill: none; stroke: #1f77b4; stroke-width: 1.5; stroke-linecap: square"/>
   </g>
   <g id="matplotlib.axis_5"/>
   <g id="matplotlib.axis_6"/>
   <g id="patch_13">
    <path d="M 90 282.648209 
L 90 186.218296 
" style="fill: none; stroke: #000000; stroke-width: 0.8; stroke-linejoin: miter; stroke-linecap: square"/>
   </g>
   <g id="patch_14">
    <path d="M 343.636364 282.648209 
L 343.636364 186.218296 
" style="fill: none; stroke: #000000; stroke-width: 0.8; stroke-linejoin: miter; stroke-linecap: square"/>
   </g>
   <g id="patch_15">
    <path d="M 90 282.648209 
L 343.636364 282.648209 
" style="fill: none; stroke: #000000; stroke-width: 0.8; stroke-linejoin: miter; stroke-linecap: square"/>
   </g>
   <g id="patch_16">
    <path d="M 90 186.218296 
L 343.636364 186.218296 
" style="fill: none; stroke: #000000; stroke-width: 0.8; stroke-linejoin: miter; stroke-linecap: square"/>
   </g>
  </g>
  <g id="axes_4">
   <g id="patch_17">
    <path d="M 394.363636 282.648209 
L 648 282.648209 
L 648 186.218296 
L 394.363636 186.218296 
z
" style="fill: #ffffff"/>
   </g>
   <g id="line2d_7">
    <path d="M 394.363636 238.333689 
L 405.267393 236.684462 
L 444.669618 230.931905 
L 450.493208 229.767329 
L 454.706041 228.709539 
L 457.431984 227.80251 
L 458.794948 227.128286 
L 459.538386 226.705041 
L 460.405735 226.282736 
L 461.89261 225.692139 
L 463.627293 225.195972 
L 465.114168 224.868892 
L 466.229324 224.554687 
L 467.592304 224.436337 
L 469.20309 224.847898 
L 469.946528 225.065747 
L 474.654969 225.536954 
L 475.646222 225.399395 
L 476.637474 225.268746 
L 478.000438 225.16687 
L 478.619972 225.080876 
L 479.85904 225.014356 
L 480.974196 225.211681 
L 483.204509 225.3493 
L 484.939192 225.321049 
L 485.558733 225.139538 
L 486.797794 224.680374 
L 487.665135 224.429054 
L 488.780291 224.415036 
L 491.010612 224.735921 
L 492.373583 224.820132 
L 493.612644 224.832773 
L 494.975615 224.784155 
L 495.842964 224.572354 
L 498.940618 224.137134 
L 501.54265 224.083909 
L 502.038272 224.0427 
L 503.525155 223.767057 
L 505.631565 223.162178 
L 507.490159 222.627825 
L 508.357508 222.532841 
L 509.844383 222.37021 
L 512.322511 222.430261 
L 513.685482 222.812425 
L 514.181105 223.026055 
L 515.915795 224.206903 
L 516.907048 224.972639 
L 518.270012 225.700805 
L 522.978453 227.536021 
L 524.093617 228.073174 
L 525.704396 228.625619 
L 527.067367 228.82325 
L 528.554243 228.691029 
L 529.79331 228.563762 
L 530.908467 228.346973 
L 531.528001 228.270607 
L 532.643153 228.117753 
L 533.634406 227.964584 
L 534.625655 228.109267 
L 535.988626 228.505942 
L 537.475502 228.585997 
L 538.095036 228.54302 
L 539.210192 228.299773 
L 541.936135 227.263194 
L 544.04254 226.437688 
L 545.281604 225.934606 
L 548.131451 224.77924 
L 549.122704 224.580117 
L 553.211615 223.795508 
L 555.441928 224.092045 
L 556.43318 224.625885 
L 557.05271 225.103396 
L 559.654742 227.382674 
L 564.734909 231.839224 
L 565.602251 232.736882 
L 566.965222 234.366297 
L 569.691161 237.301594 
L 571.054133 238.839854 
L 577.497264 244.332966 
L 578.860236 245.46851 
L 579.603673 246.397969 
L 581.338364 248.674377 
L 583.816492 250.973324 
L 585.551182 252.074006 
L 589.268374 253.432895 
L 591.003064 254.266398 
L 592.242117 254.543677 
L 595.215875 254.592575 
L 597.074477 255.040481 
L 599.552597 255.541461 
L 600.54385 255.837635 
L 602.030733 256.027599 
L 606.491358 256.199652 
L 607.234796 255.956247 
L 608.226049 255.148271 
L 609.465109 253.87058 
L 612.314963 250.683575 
L 613.554023 249.483258 
L 615.288706 248.160046 
L 619.873251 244.40135 
L 620.864504 243.800627 
L 621.607941 243.625228 
L 623.590439 243.38715 
L 628.051065 242.294175 
L 634.370292 240.851797 
L 641.556869 239.452379 
L 648 238.353702 
L 648 238.353702 
" clip-path="url(#pfd85c0905e)" style="fill: none; stroke: #ff0000; stroke-width: 1.5; stroke-linecap: square"/>
   </g>
   <g id="line2d_8">
    <path d="M 394.363636 234.433251 
L 459.042771 234.364695 
L 463.255574 232.754141 
L 463.875116 232.490893 
L 464.618553 232.231751 
L 465.485887 231.891375 
L 467.220585 230.85175 
L 468.955275 229.863895 
L 469.574809 229.690473 
L 473.911523 229.156561 
L 475.646222 229.153195 
L 477.628727 228.781544 
L 478.248253 228.680926 
L 479.115602 228.457356 
L 480.974196 227.917076 
L 482.708879 227.821194 
L 483.328413 227.803717 
L 485.063103 227.894114 
L 485.806541 227.943577 
L 487.169512 227.611799 
L 488.036854 227.20149 
L 489.028106 226.736817 
L 489.771552 226.561765 
L 494.7278 226.192983 
L 495.719053 226.1251 
L 499.064522 225.456379 
L 499.931871 225.29314 
L 500.799212 225.11843 
L 501.914369 224.999205 
L 505.507661 224.512087 
L 506.870625 223.799852 
L 507.985789 223.20812 
L 508.729226 222.844665 
L 511.702977 221.02135 
L 513.065948 219.96654 
L 513.809386 219.472482 
L 514.552824 218.898517 
L 515.915795 218.1548 
L 516.535329 218.036155 
L 517.402671 217.994604 
L 519.013457 218.027581 
L 523.226268 217.874101 
L 524.589239 218.089327 
L 528.925961 219.376341 
L 530.784555 219.589746 
L 532.767061 219.471712 
L 535.493 218.936535 
L 536.60816 219.138324 
L 538.095036 219.446531 
L 539.705815 219.754821 
L 540.944882 219.840872 
L 541.812228 219.848053 
L 542.803476 219.68564 
L 545.405512 218.996112 
L 546.396761 218.586572 
L 547.511917 217.839598 
L 548.50317 217.188819 
L 549.742238 216.395097 
L 551.972551 214.853555 
L 554.078956 212.675167 
L 555.565835 210.865 
L 557.176618 209.03781 
L 559.530838 207.080639 
L 561.017717 206.226374 
L 561.885063 205.665186 
L 562.752408 205.37611 
L 563.743657 205.075851 
L 564.858817 204.589443 
L 565.97397 203.983357 
L 566.841319 203.854851 
L 568.947724 203.678685 
L 570.310695 203.675115 
L 573.036635 204.453632 
L 574.151791 204.570896 
L 575.514759 204.809648 
L 578.364613 205.46613 
L 579.231955 205.448203 
L 579.851488 205.573916 
L 580.718834 206.027442 
L 584.436022 209.422872 
L 585.922901 210.976065 
L 586.790246 211.824588 
L 587.657587 212.534903 
L 590.011812 214.227264 
L 591.870406 216.09697 
L 592.737755 217.04289 
L 598.065722 220.702623 
L 598.685256 221.18486 
L 599.924316 222.096843 
L 605.624017 227.885611 
L 606.986989 229.866991 
L 608.226049 231.72239 
L 609.465109 233.133835 
L 611.075888 234.381999 
L 612.438859 234.936785 
L 613.182297 235.065403 
L 614.173557 235.214151 
L 616.527782 235.771959 
L 618.014649 235.725215 
L 618.882006 235.648702 
L 619.377621 235.637677 
L 619.997155 235.417355 
L 620.864504 235.00967 
L 621.855756 234.585396 
L 622.970905 234.43325 
L 648 234.433252 
L 648 234.433252 
" clip-path="url(#pfd85c0905e)" style="fill: none; stroke: #1f77b4; stroke-width: 1.5; stroke-linecap: square"/>
   </g>
   <g id="matplotlib.axis_7"/>
   <g id="matplotlib.axis_8"/>
   <g id="patch_18">
    <path d="M 394.363636 282.648209 
L 394.363636 186.218296 
" style="fill: none; stroke: #000000; stroke-width: 0.8; stroke-linejoin: miter; stroke-linecap: square"/>
   </g>
   <g id="patch_19">
    <path d="M 648 282.648209 
L 648 186.218296 
" style="fill: none; stroke: #000000; stroke-width: 0.8; stroke-linejoin: miter; stroke-linecap: square"/>
   </g>
   <g id="patch_20">
    <path d="M 394.363636 282.648209 
L 648 282.648209 
" style="fill: none; stroke: #000000; stroke-width: 0.8; stroke-linejoin: miter; stroke-linecap: square"/>
   </g>
   <g id="patch_21">
    <path d="M 394.363636 186.218296 
L 648 186.218296 
" style="fill: none; stroke: #000000; stroke-width: 0.8; stroke-linejoin: miter; stroke-linecap: square"/>
   </g>
  </g>
  <g id="axes_5">
   <g id="patch_22">
    <path d="M 90 398.364104 
L 343.636364 398.364104 
L 343.636364 301.934191 
L 90 301.934191 
z
" style="fill: #ffffff"/>
   </g>
   <g id="line2d_9">
    <path d="M 90 345.136861 
L 98.797355 345.638109 
L 108.957675 345.988452 
L 119.365801 346.128787 
L 128.906594 346.043454 
L 136.712705 345.762709 
L 142.784117 345.335583 
L 147.49255 344.78994 
L 150.961947 344.172213 
L 153.316155 343.545824 
L 154.555223 343.009407 
L 156.785536 342.033477 
L 158.024604 341.597939 
L 160.007094 340.979463 
L 161.493969 340.497028 
L 162.856948 339.967597 
L 164.096009 339.643075 
L 165.830699 339.478481 
L 166.698048 339.662146 
L 167.565389 339.910347 
L 168.556642 339.912885 
L 170.539148 339.938779 
L 172.026023 340.009157 
L 172.893372 340.065672 
L 176.486648 341.257891 
L 177.849628 341.742347 
L 179.832125 342.307344 
L 181.195097 342.961026 
L 182.310253 343.714618 
L 183.797129 344.960802 
L 186.151353 347.610349 
L 188.753385 351.085122 
L 190.24026 353.113125 
L 191.727135 354.8127 
L 196.55948 360.064515 
L 199.781053 362.733094 
L 203.126522 365.703164 
L 204.36559 366.499696 
L 206.348088 367.767348 
L 210.808721 370.559898 
L 211.676063 370.720741 
L 212.4195 370.8945 
L 214.649821 371.409457 
L 215.517162 371.322216 
L 216.2606 371.161494 
L 218.862631 370.358895 
L 221.588574 369.928929 
L 222.332012 370.078529 
L 223.818887 370.297047 
L 226.297015 370.476788 
L 228.651236 370.813231 
L 232.244524 371.120716 
L 233.35968 371.29315 
L 235.713897 371.330337 
L 237.82031 371.044224 
L 239.059374 370.979089 
L 241.537502 370.552583 
L 242.900474 370.489226 
L 243.891726 370.183546 
L 246.741569 369.122318 
L 247.361099 368.935803 
L 249.591416 367.994843 
L 251.078291 367.25884 
L 251.821729 366.840932 
L 252.812982 366.04409 
L 257.893145 361.607497 
L 259.627832 360.113593 
L 260.247365 359.523417 
L 263.592839 355.469285 
L 268.053468 349.808715 
L 268.92081 348.952615 
L 271.398945 347.054518 
L 279.824574 342.399847 
L 280.444104 342.108305 
L 282.922232 340.507177 
L 285.648175 339.34294 
L 287.011147 338.885742 
L 288.993645 337.942647 
L 289.984897 337.499999 
L 291.223957 337.212775 
L 292.091306 337.234092 
L 294.197716 337.426177 
L 294.941153 337.536843 
L 297.419281 337.849168 
L 298.038815 337.854186 
L 299.773505 337.537554 
L 301.012566 337.295166 
L 302.995063 336.905264 
L 304.358035 336.604173 
L 305.473199 336.61732 
L 307.703512 337.070934 
L 309.438202 337.62014 
L 311.296796 338.388244 
L 313.279294 338.987901 
L 314.270554 339.248723 
L 315.137888 339.577144 
L 315.881333 339.829967 
L 316.624771 340.092116 
L 317.987743 340.83408 
L 318.855084 341.268423 
L 320.837589 341.947172 
L 323.81134 342.692154 
L 327.776351 343.431611 
L 332.85651 344.136457 
L 339.175738 344.780046 
L 343.636364 345.128207 
L 343.636364 345.128207 
" clip-path="url(#pf69591bf76)" style="fill: none; stroke: #ff0000; stroke-width: 1.5; stroke-linecap: square"/>
   </g>
   <g id="line2d_10">
    <path d="M 90 350.14915 
L 154.803031 350.060583 
L 158.768042 348.833638 
L 160.131005 348.263842 
L 162.609141 347.141998 
L 164.096009 346.081989 
L 165.830699 344.696382 
L 166.945855 343.831198 
L 168.061012 343.394245 
L 168.928361 342.938569 
L 172.521653 340.587977 
L 173.636802 339.673379 
L 175.247588 338.465178 
L 176.486648 337.64571 
L 178.469154 336.430087 
L 181.566808 333.764961 
L 185.284004 330.658975 
L 186.894791 329.710383 
L 188.50557 329.133232 
L 189.868541 329.094729 
L 193.337922 329.659049 
L 194.700886 330.144831 
L 195.692138 330.673203 
L 196.683391 331.229549 
L 197.674636 331.654448 
L 200.276675 332.579155 
L 201.515743 333.356595 
L 205.356835 336.095362 
L 209.569653 339.252537 
L 212.543412 342.357699 
L 213.410753 343.191528 
L 216.756222 346.686237 
L 218.119194 347.610799 
L 219.23435 348.172539 
L 220.845137 348.731308 
L 223.07545 349.45893 
L 224.31451 350.123601 
L 226.54483 351.153516 
L 232.864054 354.834818 
L 240.917968 360.647291 
L 242.157032 361.549826 
L 245.502505 364.40063 
L 247.980633 366.243623 
L 249.71532 367.728008 
L 251.45001 369.160457 
L 252.936885 370.489738 
L 254.671576 371.674221 
L 258.14096 373.586425 
L 260.990803 375.094021 
L 261.610333 375.36549 
L 263.097212 375.767269 
L 264.460184 375.971464 
L 266.070967 375.821771 
L 267.310027 375.373815 
L 273.257535 372.29249 
L 275.240037 371.465641 
L 277.718165 370.594233 
L 279.328952 369.805742 
L 282.178795 368.696812 
L 284.533019 367.325213 
L 286.639428 366.074052 
L 287.87848 365.484155 
L 289.117556 364.737351 
L 293.578182 361.138117 
L 294.693346 360.539222 
L 295.684591 360.10824 
L 297.543193 359.404886 
L 298.162719 359.313857 
L 298.782245 359.192455 
L 299.401787 359.054702 
L 300.888654 358.407233 
L 303.118975 357.360041 
L 304.729754 356.214228 
L 306.216629 355.062114 
L 308.323038 353.720907 
L 310.801166 352.463103 
L 316.500867 350.558265 
L 317.616016 350.23729 
L 318.483373 350.149146 
L 343.636364 350.149148 
L 343.636364 350.149148 
" clip-path="url(#pf69591bf76)" style="fill: none; stroke: #1f77b4; stroke-width: 1.5; stroke-linecap: square"/>
   </g>
   <g id="matplotlib.axis_9"/>
   <g id="matplotlib.axis_10"/>
   <g id="patch_23">
    <path d="M 90 398.364104 
L 90 301.934191 
" style="fill: none; stroke: #000000; stroke-width: 0.8; stroke-linejoin: miter; stroke-linecap: square"/>
   </g>
   <g id="patch_24">
    <path d="M 343.636364 398.364104 
L 343.636364 301.934191 
" style="fill: none; stroke: #000000; stroke-width: 0.8; stroke-linejoin: miter; stroke-linecap: square"/>
   </g>
   <g id="patch_25">
    <path d="M 90 398.364104 
L 343.636364 398.364104 
" style="fill: none; stroke: #000000; stroke-width: 0.8; stroke-linejoin: miter; stroke-linecap: square"/>
   </g>
   <g id="patch_26">
    <path d="M 90 301.934191 
L 343.636364 301.934191 
" style="fill: none; stroke: #000000; stroke-width: 0.8; stroke-linejoin: miter; stroke-linecap: square"/>
   </g>
  </g>
  <g id="axes_6">
   <g id="patch_27">
    <path d="M 394.363636 398.364104 
L 648 398.364104 
L 648 301.934191 
L 394.363636 301.934191 
z
" style="fill: #ffffff"/>
   </g>
   <g id="line2d_11">
    <path d="M 394.363636 347.931985 
L 408.488951 348.372965 
L 425.216328 348.65104 
L 438.722117 348.671171 
L 448.26291 348.475288 
L 453.838692 348.162792 
L 457.308073 347.765934 
L 459.042771 347.366755 
L 460.777454 346.857327 
L 464.990272 346.209101 
L 466.353236 346.391728 
L 468.087926 346.755447 
L 469.326994 347.267024 
L 471.681211 348.27914 
L 472.920278 348.626755 
L 475.150591 348.886959 
L 479.982936 349.041271 
L 483.452317 348.541339 
L 484.815296 348.398318 
L 486.921697 348.612842 
L 490.638893 349.923284 
L 491.506234 350.224884 
L 493.736547 351.534469 
L 495.966868 353.407516 
L 497.205928 354.406784 
L 500.799212 357.076158 
L 502.038272 357.643079 
L 503.27734 357.979052 
L 506.251098 358.513917 
L 508.977034 359.08241 
L 511.083443 359.393852 
L 512.69423 359.759381 
L 516.039699 360.809067 
L 517.030952 361.081703 
L 519.137361 361.814553 
L 520.995955 362.121631 
L 522.358926 362.153547 
L 523.845802 361.995727 
L 527.315182 361.431042 
L 529.545495 360.701608 
L 532.519246 359.375922 
L 536.360345 357.745453 
L 540.201445 356.532805 
L 541.936135 355.749413 
L 543.175195 355.276602 
L 544.909886 354.8491 
L 546.025042 354.663949 
L 548.750985 353.857748 
L 552.220366 352.328215 
L 553.087707 352.030887 
L 556.804899 351.173566 
L 557.796148 351.327025 
L 559.283023 351.581807 
L 560.769902 351.576565 
L 562.008966 351.489341 
L 563.371938 351.208079 
L 572.788823 348.713964 
L 574.151791 348.534608 
L 576.382112 348.416319 
L 577.745083 348.368149 
L 582.949147 347.56877 
L 584.18821 347.424686 
L 585.922901 347.296613 
L 586.914157 347.195139 
L 590.259619 346.476869 
L 591.498687 346.131422 
L 593.852903 345.432107 
L 598.313537 344.565679 
L 601.163384 344.197977 
L 604.880579 343.654312 
L 606.615262 343.699297 
L 609.341205 344.118179 
L 611.199799 344.156052 
L 613.182297 344.147998 
L 617.395115 344.720182 
L 618.510279 344.914043 
L 626.812012 346.478071 
L 632.139987 347.01721 
L 639.202645 347.504678 
L 648 347.926926 
L 648 347.926926 
" clip-path="url(#p23b3445d36)" style="fill: none; stroke: #ff0000; stroke-width: 1.5; stroke-linecap: square"/>
   </g>
   <g id="line2d_12">
    <path d="M 394.363636 350.149149 
L 459.662297 350.039736 
L 461.025261 349.645741 
L 464.618553 348.464937 
L 466.229324 347.6191 
L 469.450898 346.296548 
L 470.318247 346.20017 
L 472.424648 346.243857 
L 474.159339 346.40082 
L 481.0981 346.501867 
L 482.461072 346.2929 
L 484.07185 345.824494 
L 485.682629 345.055455 
L 488.904203 343.548438 
L 495.347334 341.304986 
L 496.46249 341.365973 
L 498.816715 341.789148 
L 500.055775 342.307279 
L 501.418746 343.087268 
L 502.781718 343.906904 
L 504.020778 344.537824 
L 505.259846 344.896314 
L 510.216102 346.585013 
L 511.702977 346.904604 
L 515.296261 347.958312 
L 518.022204 349.100549 
L 519.137361 349.799923 
L 526.32393 354.467623 
L 528.925961 356.013573 
L 530.165021 356.648509 
L 532.147527 357.403686 
L 533.634406 357.856918 
L 536.855972 358.32553 
L 537.971128 358.520979 
L 540.820975 359.148126 
L 542.927384 359.203014 
L 544.290356 359.106246 
L 545.157701 359.10277 
L 547.883636 359.458288 
L 548.9988 359.603601 
L 551.972551 359.693026 
L 554.946305 359.021474 
L 558.167867 358.081165 
L 559.15912 358.145122 
L 562.504597 358.67817 
L 564.982721 358.946831 
L 566.097881 359.012244 
L 569.319443 358.990024 
L 575.390855 358.025484 
L 576.506015 357.886139 
L 581.586175 357.809317 
L 583.56868 357.609784 
L 585.179459 357.508338 
L 586.294616 357.491768 
L 588.029306 357.567179 
L 589.020567 357.492741 
L 592.98557 357.218272 
L 594.224622 356.978177 
L 595.959313 356.616434 
L 599.676501 355.699786 
L 601.535102 355.328066 
L 602.650259 355.003762 
L 605.252291 353.992039 
L 608.34996 352.931107 
L 611.819341 352.388976 
L 614.173557 351.699996 
L 620.492785 350.497088 
L 623.466528 350.149148 
L 648 350.149148 
L 648 350.149148 
" clip-path="url(#p23b3445d36)" style="fill: none; stroke: #1f77b4; stroke-width: 1.5; stroke-linecap: square"/>
   </g>
   <g id="matplotlib.axis_11"/>
   <g id="matplotlib.axis_12"/>
   <g id="patch_28">
    <path d="M 394.363636 398.364104 
L 394.363636 301.934191 
" style="fill: none; stroke: #000000; stroke-width: 0.8; stroke-linejoin: miter; stroke-linecap: square"/>
   </g>
   <g id="patch_29">
    <path d="M 648 398.364104 
L 648 301.934191 
" style="fill: none; stroke: #000000; stroke-width: 0.8; stroke-linejoin: miter; stroke-linecap: square"/>
   </g>
   <g id="patch_30">
    <path d="M 394.363636 398.364104 
L 648 398.364104 
" style="fill: none; stroke: #000000; stroke-width: 0.8; stroke-linejoin: miter; stroke-linecap: square"/>
   </g>
   <g id="patch_31">
    <path d="M 394.363636 301.934191 
L 648 301.934191 
" style="fill: none; stroke: #000000; stroke-width: 0.8; stroke-linejoin: miter; stroke-linecap: square"/>
   </g>
  </g>
  <g id="axes_7">
   <g id="patch_32">
    <path d="M 90 514.08 
L 343.636364 514.08 
L 343.636364 417.650087 
L 90 417.650087 
z
" style="fill: #ffffff"/>
   </g>
   <g id="line2d_13">
    <path d="M 90 468.55404 
L 103.381893 467.168934 
L 149.598967 462.595152 
L 155.918187 461.717736 
L 159.387568 461.17557 
L 161.12225 460.984577 
L 165.582892 459.995475 
L 167.441486 459.819569 
L 168.928361 459.740387 
L 171.158674 459.112585 
L 172.026023 458.872778 
L 173.512898 458.624144 
L 175.743211 458.36284 
L 177.725716 457.544631 
L 178.593058 457.242818 
L 180.575555 456.517625 
L 183.301498 455.842487 
L 186.275257 455.962435 
L 187.514317 455.877838 
L 188.877288 455.728113 
L 191.231513 455.658474 
L 192.346669 455.423199 
L 193.709641 455.078881 
L 196.311672 453.744979 
L 197.179014 453.289562 
L 198.046363 453.010513 
L 199.904957 452.775774 
L 201.639647 452.635653 
L 204.117775 451.783045 
L 206.967622 451.936393 
L 207.587156 451.925652 
L 209.074031 451.813569 
L 209.693565 451.700218 
L 212.91513 450.441656 
L 214.525909 449.617387 
L 215.393258 449.209775 
L 216.508415 449.00152 
L 218.862631 448.704025 
L 219.72998 448.795275 
L 220.597322 449.017825 
L 221.588574 449.538217 
L 223.571072 450.977819 
L 224.81014 452.00112 
L 225.801385 452.822234 
L 226.668734 453.462179 
L 228.775143 454.817435 
L 230.014207 455.559126 
L 230.757645 456.12443 
L 232.492335 457.759986 
L 234.846556 459.353031 
L 235.713897 459.97035 
L 236.581246 460.917355 
L 246.36985 471.916921 
L 248.724071 473.836524 
L 249.839227 474.466811 
L 251.945636 475.256486 
L 254.795483 476.15719 
L 256.282358 476.54365 
L 258.264864 476.783278 
L 262.725493 478.095909 
L 263.592839 478.355738 
L 265.079714 478.557235 
L 266.070967 478.55332 
L 268.672998 478.728563 
L 271.398945 479.338147 
L 273.009724 479.493008 
L 273.753162 479.252428 
L 274.744411 478.996178 
L 278.957229 478.339485 
L 280.939731 477.922201 
L 284.533019 477.058006 
L 287.87848 477.242007 
L 288.993645 477.091505 
L 290.356616 477.095177 
L 291.347861 476.988931 
L 294.445531 476.556549 
L 296.180213 476.258536 
L 297.171466 476.134847 
L 297.914911 476.031248 
L 303.36679 475.969608 
L 303.986324 475.863436 
L 305.473199 475.671869 
L 307.331793 475.196686 
L 308.694757 474.713719 
L 310.181632 474.508292 
L 311.296796 474.412193 
L 313.031479 474.515693 
L 315.757422 473.934405 
L 317.244305 473.303726 
L 318.359461 472.830199 
L 320.094152 472.279623 
L 323.191806 471.544969 
L 328.024158 470.651579 
L 334.467282 469.692924 
L 343.264645 468.609946 
L 343.636364 468.568034 
L 343.636364 468.568034 
" clip-path="url(#p0424fe17f4)" style="fill: none; stroke: #ff0000; stroke-width: 1.5; stroke-linecap: square"/>
   </g>
   <g id="line2d_14">
    <path d="M 90 465.865042 
L 158.891938 465.755334 
L 160.131005 465.71054 
L 162.856948 465.843315 
L 164.096009 465.699441 
L 168.804449 465.374824 
L 170.291332 465.483259 
L 172.149934 465.308392 
L 174.628054 465.010678 
L 176.238841 465.27012 
L 178.964776 464.921812 
L 179.832125 464.712235 
L 182.062438 463.998821 
L 184.912285 462.921982 
L 186.894791 462.632436 
L 188.753385 462.344759 
L 189.620726 462.226918 
L 195.939953 462.137374 
L 196.55948 461.910655 
L 199.781053 460.195368 
L 200.896209 459.831682 
L 202.6309 459.487021 
L 203.622152 458.841371 
L 204.36559 458.343568 
L 206.595903 457.3432 
L 207.711059 457.077747 
L 209.321846 456.717356 
L 210.808721 456.434523 
L 212.4195 455.858707 
L 213.782472 455.140207 
L 214.897628 454.313235 
L 219.72998 449.1632 
L 222.455916 445.910162 
L 224.438421 444.193828 
L 226.0492 443.2585 
L 227.907798 442.374497 
L 230.014207 441.253107 
L 231.501083 440.32209 
L 235.094371 439.167823 
L 237.076872 438.053079 
L 238.192029 437.76323 
L 239.059374 437.549558 
L 239.802812 437.50947 
L 242.033124 437.70761 
L 242.776562 437.863265 
L 243.891726 438.147203 
L 245.502505 438.761721 
L 247.113288 439.877054 
L 252.936885 444.126212 
L 255.538921 445.568193 
L 257.0258 446.416664 
L 258.388771 446.941346 
L 260.123462 447.691279 
L 261.114711 448.023213 
L 261.734245 448.269673 
L 262.725493 448.736377 
L 264.831899 450.111868 
L 265.57534 450.535902 
L 266.938308 451.184648 
L 268.053468 451.526936 
L 269.044717 451.871917 
L 270.283781 452.455446 
L 272.142379 453.613527 
L 274.124881 455.066152 
L 275.363948 455.565505 
L 280.939731 457.671262 
L 282.054883 457.976355 
L 283.541766 458.2144 
L 285.40036 458.176775 
L 287.011147 458.613452 
L 288.621933 459.105132 
L 289.613178 459.317974 
L 291.595676 459.889777 
L 292.339122 460.145505 
L 292.958648 460.347534 
L 294.073804 460.587532 
L 296.05631 460.92469 
L 300.393032 461.541668 
L 305.59711 463.160453 
L 307.951327 463.821355 
L 310.305544 463.899604 
L 312.535864 464.198324 
L 313.279294 464.498548 
L 314.394458 464.858192 
L 315.633518 465.384724 
L 316.376964 465.602653 
L 318.359461 465.865043 
L 343.636364 465.865043 
L 343.636364 465.865043 
" clip-path="url(#p0424fe17f4)" style="fill: none; stroke: #1f77b4; stroke-width: 1.5; stroke-linecap: square"/>
   </g>
   <g id="matplotlib.axis_13">
    <g id="xtick_1">
     <g id="line2d_15">
      <defs>
       <path id="m470cd39fbb" d="M 0 0 
L 0 3.5 
" style="stroke: #000000; stroke-width: 0.8"/>
      </defs>
      <g>
       <use xlink:href="#m470cd39fbb" x="324.540171" y="514.08" style="stroke: #000000; stroke-width: 0.8"/>
      </g>
     </g>
     <g id="text_1">
      <!-- −2 -->
      <g transform="translate(317.169077 528.678438)scale(0.1 -0.1)">
       <defs>
        <path id="DejaVuSans-2212" d="M 678 2272 
L 4684 2272 
L 4684 1741 
L 678 1741 
L 678 2272 
z
" transform="scale(0.015625)"/>
        <path id="DejaVuSans-32" d="M 1228 531 
L 3431 531 
L 3431 0 
L 469 0 
L 469 531 
Q 828 903 1448 1529 
Q 2069 2156 2228 2338 
Q 2531 2678 2651 2914 
Q 2772 3150 2772 3378 
Q 2772 3750 2511 3984 
Q 2250 4219 1831 4219 
Q 1534 4219 1204 4116 
Q 875 4013 500 3803 
L 500 4441 
Q 881 4594 1212 4672 
Q 1544 4750 1819 4750 
Q 2544 4750 2975 4387 
Q 3406 4025 3406 3419 
Q 3406 3131 3298 2873 
Q 3191 2616 2906 2266 
Q 2828 2175 2409 1742 
Q 1991 1309 1228 531 
z
" transform="scale(0.015625)"/>
       </defs>
       <use xlink:href="#DejaVuSans-2212"/>
       <use xlink:href="#DejaVuSans-32" x="83.789062"/>
      </g>
     </g>
    </g>
    <g id="xtick_2">
     <g id="line2d_16">
      <g>
       <use xlink:href="#m470cd39fbb" x="292.14258" y="514.08" style="stroke: #000000; stroke-width: 0.8"/>
      </g>
     </g>
     <g id="text_2">
      <!-- 0 -->
      <g transform="translate(288.96133 528.678438)scale(0.1 -0.1)">
       <defs>
        <path id="DejaVuSans-30" d="M 2034 4250 
Q 1547 4250 1301 3770 
Q 1056 3291 1056 2328 
Q 1056 1369 1301 889 
Q 1547 409 2034 409 
Q 2525 409 2770 889 
Q 3016 1369 3016 2328 
Q 3016 3291 2770 3770 
Q 2525 4250 2034 4250 
z
M 2034 4750 
Q 2819 4750 3233 4129 
Q 3647 3509 3647 2328 
Q 3647 1150 3233 529 
Q 2819 -91 2034 -91 
Q 1250 -91 836 529 
Q 422 1150 422 2328 
Q 422 3509 836 4129 
Q 1250 4750 2034 4750 
z
" transform="scale(0.015625)"/>
       </defs>
       <use xlink:href="#DejaVuSans-30"/>
      </g>
     </g>
    </g>
    <g id="xtick_3">
     <g id="line2d_17">
      <g>
       <use xlink:href="#m470cd39fbb" x="259.744988" y="514.08" style="stroke: #000000; stroke-width: 0.8"/>
      </g>
     </g>
     <g id="text_3">
      <!-- 2 -->
      <g transform="translate(256.563738 528.678438)scale(0.1 -0.1)">
       <use xlink:href="#DejaVuSans-32"/>
      </g>
     </g>
    </g>
    <g id="xtick_4">
     <g id="line2d_18">
      <g>
       <use xlink:href="#m470cd39fbb" x="227.347397" y="514.08" style="stroke: #000000; stroke-width: 0.8"/>
      </g>
     </g>
     <g id="text_4">
      <!-- 4 -->
      <g transform="translate(224.166147 528.678438)scale(0.1 -0.1)">
       <defs>
        <path id="DejaVuSans-34" d="M 2419 4116 
L 825 1625 
L 2419 1625 
L 2419 4116 
z
M 2253 4666 
L 3047 4666 
L 3047 1625 
L 3713 1625 
L 3713 1100 
L 3047 1100 
L 3047 0 
L 2419 0 
L 2419 1100 
L 313 1100 
L 313 1709 
L 2253 4666 
z
" transform="scale(0.015625)"/>
       </defs>
       <use xlink:href="#DejaVuSans-34"/>
      </g>
     </g>
    </g>
    <g id="xtick_5">
     <g id="line2d_19">
      <g>
       <use xlink:href="#m470cd39fbb" x="194.949805" y="514.08" style="stroke: #000000; stroke-width: 0.8"/>
      </g>
     </g>
     <g id="text_5">
      <!-- 6 -->
      <g transform="translate(191.768555 528.678438)scale(0.1 -0.1)">
       <defs>
        <path id="DejaVuSans-36" d="M 2113 2584 
Q 1688 2584 1439 2293 
Q 1191 2003 1191 1497 
Q 1191 994 1439 701 
Q 1688 409 2113 409 
Q 2538 409 2786 701 
Q 3034 994 3034 1497 
Q 3034 2003 2786 2293 
Q 2538 2584 2113 2584 
z
M 3366 4563 
L 3366 3988 
Q 3128 4100 2886 4159 
Q 2644 4219 2406 4219 
Q 1781 4219 1451 3797 
Q 1122 3375 1075 2522 
Q 1259 2794 1537 2939 
Q 1816 3084 2150 3084 
Q 2853 3084 3261 2657 
Q 3669 2231 3669 1497 
Q 3669 778 3244 343 
Q 2819 -91 2113 -91 
Q 1303 -91 875 529 
Q 447 1150 447 2328 
Q 447 3434 972 4092 
Q 1497 4750 2381 4750 
Q 2619 4750 2861 4703 
Q 3103 4656 3366 4563 
z
" transform="scale(0.015625)"/>
       </defs>
       <use xlink:href="#DejaVuSans-36"/>
      </g>
     </g>
    </g>
    <g id="xtick_6">
     <g id="line2d_20">
      <g>
       <use xlink:href="#m470cd39fbb" x="162.552214" y="514.08" style="stroke: #000000; stroke-width: 0.8"/>
      </g>
     </g>
     <g id="text_6">
      <!-- 8 -->
      <g transform="translate(159.370964 528.678438)scale(0.1 -0.1)">
       <defs>
        <path id="DejaVuSans-38" d="M 2034 2216 
Q 1584 2216 1326 1975 
Q 1069 1734 1069 1313 
Q 1069 891 1326 650 
Q 1584 409 2034 409 
Q 2484 409 2743 651 
Q 3003 894 3003 1313 
Q 3003 1734 2745 1975 
Q 2488 2216 2034 2216 
z
M 1403 2484 
Q 997 2584 770 2862 
Q 544 3141 544 3541 
Q 544 4100 942 4425 
Q 1341 4750 2034 4750 
Q 2731 4750 3128 4425 
Q 3525 4100 3525 3541 
Q 3525 3141 3298 2862 
Q 3072 2584 2669 2484 
Q 3125 2378 3379 2068 
Q 3634 1759 3634 1313 
Q 3634 634 3220 271 
Q 2806 -91 2034 -91 
Q 1263 -91 848 271 
Q 434 634 434 1313 
Q 434 1759 690 2068 
Q 947 2378 1403 2484 
z
M 1172 3481 
Q 1172 3119 1398 2916 
Q 1625 2713 2034 2713 
Q 2441 2713 2670 2916 
Q 2900 3119 2900 3481 
Q 2900 3844 2670 4047 
Q 2441 4250 2034 4250 
Q 1625 4250 1398 4047 
Q 1172 3844 1172 3481 
z
" transform="scale(0.015625)"/>
       </defs>
       <use xlink:href="#DejaVuSans-38"/>
      </g>
     </g>
    </g>
    <g id="xtick_7">
     <g id="line2d_21">
      <g>
       <use xlink:href="#m470cd39fbb" x="130.154622" y="514.08" style="stroke: #000000; stroke-width: 0.8"/>
      </g>
     </g>
     <g id="text_7">
      <!-- 10 -->
      <g transform="translate(123.792122 528.678438)scale(0.1 -0.1)">
       <defs>
        <path id="DejaVuSans-31" d="M 794 531 
L 1825 531 
L 1825 4091 
L 703 3866 
L 703 4441 
L 1819 4666 
L 2450 4666 
L 2450 531 
L 3481 531 
L 3481 0 
L 794 0 
L 794 531 
z
" transform="scale(0.015625)"/>
       </defs>
       <use xlink:href="#DejaVuSans-31"/>
       <use xlink:href="#DejaVuSans-30" x="63.623047"/>
      </g>
     </g>
    </g>
    <g id="xtick_8">
     <g id="line2d_22">
      <g>
       <use xlink:href="#m470cd39fbb" x="97.757031" y="514.08" style="stroke: #000000; stroke-width: 0.8"/>
      </g>
     </g>
     <g id="text_8">
      <!-- 12 -->
      <g transform="translate(91.394531 528.678438)scale(0.1 -0.1)">
       <use xlink:href="#DejaVuSans-31"/>
       <use xlink:href="#DejaVuSans-32" x="63.623047"/>
      </g>
     </g>
    </g>
   </g>
   <g id="matplotlib.axis_14"/>
   <g id="patch_33">
    <path d="M 90 514.08 
L 90 417.650087 
" style="fill: none; stroke: #000000; stroke-width: 0.8; stroke-linejoin: miter; stroke-linecap: square"/>
   </g>
   <g id="patch_34">
    <path d="M 343.636364 514.08 
L 343.636364 417.650087 
" style="fill: none; stroke: #000000; stroke-width: 0.8; stroke-linejoin: miter; stroke-linecap: square"/>
   </g>
   <g id="patch_35">
    <path d="M 90 514.08 
L 343.636364 514.08 
" style="fill: none; stroke: #000000; stroke-width: 0.8; stroke-linejoin: miter; stroke-linecap: square"/>
   </g>
   <g id="patch_36">
    <path d="M 90 417.650087 
L 343.636364 417.650087 
" style="fill: none; stroke: #000000; stroke-width: 0.8; stroke-linejoin: miter; stroke-linecap: square"/>
   </g>
  </g>
  <g id="axes_8">
   <g id="patch_37">
    <path d="M 394.363636 514.08 
L 648 514.08 
L 648 417.650087 
L 394.363636 417.650087 
z
" style="fill: #ffffff"/>
   </g>
   <g id="line2d_23">
    <path d="M 394.363636 464.662851 
L 410.099753 464.369888 
L 426.8271 463.842815 
L 440.208992 463.213106 
L 449.749785 462.557007 
L 456.069005 461.913865 
L 458.91886 461.442803 
L 460.529646 461.143822 
L 464.494642 460.713536 
L 466.229324 460.598433 
L 467.344496 460.344485 
L 468.831372 460.084291 
L 470.937773 459.836483 
L 475.274503 459.258444 
L 477.009185 458.994601 
L 480.974196 458.54824 
L 485.558733 458.373698 
L 487.665135 458.242806 
L 494.603896 457.792879 
L 496.214683 457.839956 
L 498.692803 457.725939 
L 502.409999 458.103034 
L 504.392497 458.576226 
L 506.498906 459.394218 
L 508.109693 460.042413 
L 510.09219 460.885841 
L 512.69423 462.538991 
L 514.552824 463.639313 
L 518.641731 465.529138 
L 521.119859 466.653428 
L 523.226268 467.650964 
L 524.341424 468.143481 
L 526.571745 469.089256 
L 532.023623 471.133583 
L 536.855972 473.605435 
L 538.342851 474.199655 
L 539.705815 474.746499 
L 541.316601 475.614737 
L 542.555665 476.172754 
L 548.255363 478.096021 
L 549.990049 478.445598 
L 552.468173 478.592848 
L 554.326771 478.506011 
L 560.150368 477.444797 
L 561.637247 477.37269 
L 563.743657 477.290803 
L 565.230532 477.188244 
L 568.080383 476.800612 
L 570.806322 476.309635 
L 572.788823 476.015051 
L 574.275699 475.736468 
L 577.621172 474.629084 
L 581.462267 473.109844 
L 583.444769 472.162363 
L 584.683837 471.488223 
L 587.161973 470.189243 
L 589.763997 468.953511 
L 595.46369 466.420465 
L 599.180878 465.364138 
L 600.667761 465.07184 
L 605.624017 463.71598 
L 606.739174 463.486227 
L 612.067148 462.965793 
L 616.899501 463.125185 
L 619.625436 463.553018 
L 623.21872 464.137732 
L 626.192471 464.403014 
L 631.272638 464.61628 
L 639.45046 464.712555 
L 648 464.664243 
L 648 464.664243 
" clip-path="url(#p0d45323e72)" style="fill: none; stroke: #ff0000; stroke-width: 1.5; stroke-linecap: square"/>
   </g>
   <g id="line2d_24">
    <path d="M 394.363636 465.865045 
L 459.910105 465.761229 
L 463.503397 465.26164 
L 464.618553 465.14308 
L 467.964022 464.999012 
L 474.902784 464.023608 
L 475.894029 463.837746 
L 480.850285 462.746462 
L 482.461072 462.32312 
L 492.249672 460.001585 
L 493.984362 459.250391 
L 495.223422 458.846492 
L 497.082024 458.2908 
L 498.321084 457.753856 
L 499.684056 457.126559 
L 502.162184 455.895024 
L 507.242344 453.444274 
L 509.348753 452.643392 
L 510.711724 452.06721 
L 512.322511 451.600221 
L 513.561571 451.485239 
L 515.048446 451.460669 
L 522.730645 451.458674 
L 527.56299 451.98555 
L 529.421584 452.14527 
L 530.536748 452.135113 
L 532.147527 452.174345 
L 533.634406 452.375621 
L 536.236442 452.888497 
L 537.723317 453.381423 
L 539.581911 453.849974 
L 541.068786 454.295064 
L 543.175195 455.300778 
L 547.388014 457.365662 
L 555.441928 462.432241 
L 558.043959 463.52765 
L 564.982721 465.823189 
L 569.815069 467.713203 
L 574.151791 469.399128 
L 575.514759 469.999918 
L 581.462267 471.987811 
L 584.18821 472.710957 
L 585.798993 472.892349 
L 588.772751 472.986933 
L 590.259619 472.972572 
L 593.481192 472.609343 
L 597.446196 471.742035 
L 598.685256 471.455507 
L 600.048227 471.185443 
L 601.411199 470.968006 
L 603.393696 470.671665 
L 605.004483 470.364256 
L 606.491358 469.843925 
L 608.473856 469.241038 
L 614.297461 467.402724 
L 616.156055 466.937797 
L 620.988407 466.008564 
L 623.342624 465.865043 
L 648 465.865042 
L 648 465.865042 
" clip-path="url(#p0d45323e72)" style="fill: none; stroke: #1f77b4; stroke-width: 1.5; stroke-linecap: square"/>
   </g>
   <g id="matplotlib.axis_15">
    <g id="xtick_9">
     <g id="line2d_25">
      <g>
       <use xlink:href="#m470cd39fbb" x="628.903807" y="514.08" style="stroke: #000000; stroke-width: 0.8"/>
      </g>
     </g>
     <g id="text_9">
      <!-- −2 -->
      <g transform="translate(621.532714 528.678438)scale(0.1 -0.1)">
       <use xlink:href="#DejaVuSans-2212"/>
       <use xlink:href="#DejaVuSans-32" x="83.789062"/>
      </g>
     </g>
    </g>
    <g id="xtick_10">
     <g id="line2d_26">
      <g>
       <use xlink:href="#m470cd39fbb" x="596.506216" y="514.08" style="stroke: #000000; stroke-width: 0.8"/>
      </g>
     </g>
     <g id="text_10">
      <!-- 0 -->
      <g transform="translate(593.324966 528.678438)scale(0.1 -0.1)">
       <use xlink:href="#DejaVuSans-30"/>
      </g>
     </g>
    </g>
    <g id="xtick_11">
     <g id="line2d_27">
      <g>
       <use xlink:href="#m470cd39fbb" x="564.108625" y="514.08" style="stroke: #000000; stroke-width: 0.8"/>
      </g>
     </g>
     <g id="text_11">
      <!-- 2 -->
      <g transform="translate(560.927375 528.678438)scale(0.1 -0.1)">
       <use xlink:href="#DejaVuSans-32"/>
      </g>
     </g>
    </g>
    <g id="xtick_12">
     <g id="line2d_28">
      <g>
       <use xlink:href="#m470cd39fbb" x="531.711033" y="514.08" style="stroke: #000000; stroke-width: 0.8"/>
      </g>
     </g>
     <g id="text_12">
      <!-- 4 -->
      <g transform="translate(528.529783 528.678438)scale(0.1 -0.1)">
       <use xlink:href="#DejaVuSans-34"/>
      </g>
     </g>
    </g>
    <g id="xtick_13">
     <g id="line2d_29">
      <g>
       <use xlink:href="#m470cd39fbb" x="499.313442" y="514.08" style="stroke: #000000; stroke-width: 0.8"/>
      </g>
     </g>
     <g id="text_13">
      <!-- 6 -->
      <g transform="translate(496.132192 528.678438)scale(0.1 -0.1)">
       <use xlink:href="#DejaVuSans-36"/>
      </g>
     </g>
    </g>
    <g id="xtick_14">
     <g id="line2d_30">
      <g>
       <use xlink:href="#m470cd39fbb" x="466.91585" y="514.08" style="stroke: #000000; stroke-width: 0.8"/>
      </g>
     </g>
     <g id="text_14">
      <!-- 8 -->
      <g transform="translate(463.7346 528.678438)scale(0.1 -0.1)">
       <use xlink:href="#DejaVuSans-38"/>
      </g>
     </g>
    </g>
    <g id="xtick_15">
     <g id="line2d_31">
      <g>
       <use xlink:href="#m470cd39fbb" x="434.518259" y="514.08" style="stroke: #000000; stroke-width: 0.8"/>
      </g>
     </g>
     <g id="text_15">
      <!-- 10 -->
      <g transform="translate(428.155759 528.678438)scale(0.1 -0.1)">
       <use xlink:href="#DejaVuSans-31"/>
       <use xlink:href="#DejaVuSans-30" x="63.623047"/>
      </g>
     </g>
    </g>
    <g id="xtick_16">
     <g id="line2d_32">
      <g>
       <use xlink:href="#m470cd39fbb" x="402.120667" y="514.08" style="stroke: #000000; stroke-width: 0.8"/>
      </g>
     </g>
     <g id="text_16">
      <!-- 12 -->
      <g transform="translate(395.758167 528.678438)scale(0.1 -0.1)">
       <use xlink:href="#DejaVuSans-31"/>
       <use xlink:href="#DejaVuSans-32" x="63.623047"/>
      </g>
     </g>
    </g>
   </g>
   <g id="matplotlib.axis_16"/>
   <g id="patch_38">
    <path d="M 394.363636 514.08 
L 394.363636 417.650087 
" style="fill: none; stroke: #000000; stroke-width: 0.8; stroke-linejoin: miter; stroke-linecap: square"/>
   </g>
   <g id="patch_39">
    <path d="M 648 514.08 
L 648 417.650087 
" style="fill: none; stroke: #000000; stroke-width: 0.8; stroke-linejoin: miter; stroke-linecap: square"/>
   </g>
   <g id="patch_40">
    <path d="M 394.363636 514.08 
L 648 514.08 
" style="fill: none; stroke: #000000; stroke-width: 0.8; stroke-linejoin: miter; stroke-linecap: square"/>
   </g>
   <g id="patch_41">
    <path d="M 394.363636 417.650087 
L 648 417.650087 
" style="fill: none; stroke: #000000; stroke-width: 0.8; stroke-linejoin: miter; stroke-linecap: square"/>
   </g>
  </g>
 </g>
 <defs>
  <clipPath id="pd37384e9b0">
   <rect x="90" y="70.5024" width="253.636364" height="96.429913"/>
  </clipPath>
  <clipPath id="p78cb3a60fc">
   <rect x="394.363636" y="70.5024" width="253.636364" height="96.429913"/>
  </clipPath>
  <clipPath id="p2f88ecabdb">
   <rect x="90" y="186.218296" width="253.636364" height="96.429913"/>
  </clipPath>
  <clipPath id="pfd85c0905e">
   <rect x="394.363636" y="186.218296" width="253.636364" height="96.429913"/>
  </clipPath>
  <clipPath id="pf69591bf76">
   <rect x="90" y="301.934191" width="253.636364" height="96.429913"/>
  </clipPath>
  <clipPath id="p23b3445d36">
   <rect x="394.363636" y="301.934191" width="253.636364" height="96.429913"/>
  </clipPath>
  <clipPath id="p0424fe17f4">
   <rect x="90" y="417.650087" width="253.636364" height="96.429913"/>
  </clipPath>
  <clipPath id="p0d45323e72">
   <rect x="394.363636" y="417.650087" width="253.636364" height="96.429913"/>
  </clipPath>
 </defs>
</svg>
