<?xml version="1.0" encoding="utf-8" standalone="no"?>
<!DOCTYPE svg PUBLIC "-//W3C//DTD SVG 1.1//EN"
  "http://www.w3.org/Graphics/SVG/1.1/DTD/svg11.dtd">
<svg xmlns:xlink="http://www.w3.org/1999/xlink" width="720pt" height="587.52pt" viewBox="0 0 720 587.52" xmlns="http://www.w3.org/2000/svg" version="1.1">
 <metadata>
  <rdf:RDF xmlns:dc="http://purl.org/dc/elements/1.1/" xmlns:cc="http://creativecommons.org/ns#" xmlns:rdf="http://www.w3.org/1999/02/22-rdf-syntax-ns#">
   <cc:Work>
    <dc:type rdf:resource="http://purl.org/dc/dcmitype/StillImage"/>
    <dc:date>2023-06-28T18:28:36.882608</dc:date>
    <dc:format>image/svg+xml</dc:format>
    <dc:creator>
     <cc:Agent>
      <dc:title>Matplotlib v3.5.1, https://matplotlib.org/</dc:title>
     </cc:Agent>
    </dc:creator>
   </cc:Work>
  </rdf:RDF>
 </metadata>
 <defs>
  <style type="text/css">*{stroke-linejoin: round; stroke-linecap: butt}</style>
 </defs>
 <g id="figure_1">
  <g id="patch_1">
   <path d="M 0 587.52 
L 720 587.52 
L 720 0 
L 0 0 
L 0 587.52 
z
" style="fill: none"/>
  </g>
  <g id="axes_1">
   <g id="patch_2">
    <path d="M 90 166.932313 
L 343.636364 166.932313 
L 343.636364 70.5024 
L 90 70.5024 
z
" style="fill: #ffffff"/>
   </g>
   <g id="line2d_1">
    <path d="M -1 118.557786 
L 21.770515 118.517418 
L 42.141509 118.464276 
L 56.692191 118.416461 
L 71.242892 118.343251 
L 81.266709 118.279431 
L 91.937208 118.174218 
L 98.727547 118.089132 
L 107.457956 117.916031 
L 112.308183 117.78759 
L 126.535543 116.920099 
L 131.709112 116.05299 
L 134.295906 115.236123 
L 135.912655 114.469075 
L 136.235997 114.241382 
L 136.559339 114.155988 
L 136.882701 114.393167 
L 137.206042 114.165337 
L 137.529384 112.468738 
L 138.49943 109.495382 
L 138.822792 109.897187 
L 139.146133 109.154102 
L 139.469475 107.924334 
L 140.116179 107.487909 
L 140.762882 105.055638 
L 141.086224 104.519575 
L 141.732928 105.138499 
L 142.379632 109.220497 
L 142.702973 111.672715 
L 143.673019 115.383623 
L 143.996361 115.195337 
L 144.966406 120.625584 
L 145.936451 129.064303 
L 146.259813 130.273294 
L 146.583155 130.857982 
L 146.906497 131.085005 
L 147.229859 130.584055 
L 147.876542 132.343582 
L 148.199904 133.044466 
L 148.523246 134.067574 
L 149.16995 136.848522 
L 149.493291 137.933119 
L 149.816633 139.902455 
L 150.139995 139.660361 
L 150.463337 137.588911 
L 151.11004 135.274434 
L 151.433382 135.519226 
L 151.756724 138.064171 
L 152.080086 139.366494 
L 152.403428 138.64736 
L 152.726769 135.939484 
L 153.373473 124.173179 
L 153.696835 120.472061 
L 154.020177 118.711836 
L 154.343519 118.655763 
L 154.990222 119.706235 
L 155.313564 119.487341 
L 155.636926 118.873787 
L 155.960268 117.604051 
L 156.606971 112.914757 
L 156.930313 112.413903 
L 157.253655 112.939133 
L 157.900359 116.218965 
L 158.547062 117.341039 
L 159.517108 118.13045 
L 160.163811 118.45776 
L 160.810495 118.68555 
L 161.78054 118.942308 
L 166.954129 119.324627 
L 169.217562 119.334779 
L 171.481015 119.349546 
L 174.391151 119.32134 
L 177.301287 119.307928 
L 180.858127 119.265395 
L 185.061661 119.235092 
L 189.588536 119.195924 
L 194.438774 119.152168 
L 200.582398 119.116824 
L 207.372726 119.073177 
L 215.456442 119.039099 
L 224.186861 119.000822 
L 234.85737 118.96955 
L 246.174574 118.936646 
L 260.078582 118.909004 
L 275.275967 118.880087 
L 294.353544 118.854498 
L 316.017916 118.827787 
L 344.149264 118.802201 
L 379.394282 118.773876 
L 433.393504 118.739144 
L 478.015655 118.712385 
L 478.015655 118.712385 
" clip-path="url(#p62fb1c981b)" style="fill: none; stroke: #ff0000; stroke-width: 1.5; stroke-linecap: square"/>
   </g>
   <g id="line2d_2">
    <path d="M -1 118.717357 
L 136.235997 118.717356 
L 136.559339 118.575695 
L 136.882701 118.789263 
L 137.206042 119.834139 
L 137.529384 120.348116 
L 137.852746 119.430843 
L 138.176088 119.529213 
L 138.822792 117.482085 
L 139.146133 117.770015 
L 139.792837 115.491011 
L 140.116179 115.185366 
L 140.439521 114.446611 
L 141.086224 110.342028 
L 142.379632 101.591442 
L 142.702973 101.018212 
L 143.026315 101.259705 
L 143.349677 100.524415 
L 143.673019 101.196828 
L 143.996361 100.139934 
L 144.319722 98.672973 
L 144.643064 98.203763 
L 144.966406 96.969893 
L 145.289768 96.95127 
L 145.61311 97.710491 
L 145.936451 99.202313 
L 146.259813 101.755562 
L 146.906497 105.077434 
L 147.229859 105.477859 
L 147.553201 105.574284 
L 148.199904 106.955799 
L 148.523246 107.449825 
L 148.846588 108.278012 
L 149.493291 111.150815 
L 149.816633 113.549269 
L 150.139995 117.670138 
L 150.463337 119.666956 
L 150.786679 120.562551 
L 151.11004 120.918472 
L 151.433382 120.308896 
L 151.756724 121.305398 
L 153.050131 137.576739 
L 153.373473 136.324722 
L 153.696835 133.94487 
L 154.343519 128.400948 
L 154.66688 127.051779 
L 154.990222 126.788037 
L 155.960268 128.246408 
L 156.283609 127.856992 
L 157.577017 118.717707 
L 260.078582 118.717357 
L 478.015655 118.717356 
L 478.015655 118.717356 
" clip-path="url(#p62fb1c981b)" style="fill: none; stroke: #1f77b4; stroke-width: 1.5; stroke-linecap: square"/>
   </g>
   <g id="matplotlib.axis_1"/>
   <g id="matplotlib.axis_2"/>
   <g id="patch_3">
    <path d="M 90 166.932313 
L 90 70.5024 
" style="fill: none; stroke: #000000; stroke-width: 0.8; stroke-linejoin: miter; stroke-linecap: square"/>
   </g>
   <g id="patch_4">
    <path d="M 343.636364 166.932313 
L 343.636364 70.5024 
" style="fill: none; stroke: #000000; stroke-width: 0.8; stroke-linejoin: miter; stroke-linecap: square"/>
   </g>
   <g id="patch_5">
    <path d="M 90 166.932313 
L 343.636364 166.932313 
" style="fill: none; stroke: #000000; stroke-width: 0.8; stroke-linejoin: miter; stroke-linecap: square"/>
   </g>
   <g id="patch_6">
    <path d="M 90 70.5024 
L 343.636364 70.5024 
" style="fill: none; stroke: #000000; stroke-width: 0.8; stroke-linejoin: miter; stroke-linecap: square"/>
   </g>
  </g>
  <g id="axes_2">
   <g id="patch_7">
    <path d="M 394.363636 166.932313 
L 648 166.932313 
L 648 70.5024 
L 394.363636 70.5024 
z
" style="fill: #ffffff"/>
   </g>
   <g id="line2d_3">
    <path d="M 120.484357 118.712836 
L 429.28243 118.665751 
L 435.749406 118.268424 
L 438.336181 117.748937 
L 439.629588 117.193395 
L 440.276292 116.721652 
L 440.599633 116.389151 
L 440.922975 115.884406 
L 441.246337 115.149284 
L 441.569679 114.696278 
L 442.216383 113.016304 
L 442.863066 112.412837 
L 443.186428 112.789303 
L 444.803157 121.420144 
L 445.449861 123.685907 
L 445.773222 123.653576 
L 446.096564 123.018924 
L 446.419906 123.384548 
L 447.389951 126.464423 
L 447.713313 127.059333 
L 448.683359 131.587952 
L 449.006701 132.304821 
L 449.330042 132.371856 
L 450.300088 130.105538 
L 450.62345 129.90429 
L 451.270133 130.049305 
L 451.593495 129.493205 
L 452.240179 129.991982 
L 452.886882 128.531603 
L 453.533586 123.290703 
L 453.856928 120.791273 
L 454.503631 117.939883 
L 454.826973 117.693181 
L 455.150315 116.947232 
L 455.473677 117.44679 
L 456.12036 120.274313 
L 456.443722 120.88445 
L 457.737109 118.069033 
L 458.383813 114.794365 
L 458.707155 113.905544 
L 459.030517 113.524723 
L 459.353859 112.958492 
L 459.6772 112.153264 
L 460.000562 111.774373 
L 460.323904 111.975237 
L 460.647246 112.474387 
L 460.970608 112.491491 
L 461.293949 112.866388 
L 462.263995 114.856233 
L 462.910699 115.516475 
L 463.880744 116.142839 
L 465.174131 116.668683 
L 467.437584 117.206665 
L 469.701017 117.537375 
L 475.521289 117.973283 
L 490.718695 118.353979 
L 499.449104 118.444186 
L 519.820078 118.544599 
L 537.280906 118.5887 
L 560.238685 118.624046 
L 596.77709 118.65402 
L 642.369266 118.676811 
L 721 118.699518 
L 721 118.699518 
" clip-path="url(#p0a6f037fe7)" style="fill: none; stroke: #ff0000; stroke-width: 1.5; stroke-linecap: square"/>
   </g>
   <g id="line2d_4">
    <path d="M 120.484357 118.717357 
L 440.922975 118.740332 
L 441.569679 117.966569 
L 441.893021 117.57422 
L 442.863066 113.495372 
L 443.50977 109.288089 
L 444.156473 108.205705 
L 444.479815 108.099449 
L 445.126519 109.312799 
L 445.773222 111.67598 
L 446.096564 111.812216 
L 446.419906 110.931399 
L 447.06661 110.786283 
L 447.389951 111.221197 
L 448.036655 111.443009 
L 448.359997 112.52137 
L 448.683359 113.988732 
L 449.653404 119.678843 
L 450.300088 121.491781 
L 450.62345 121.574898 
L 451.270133 123.223494 
L 451.593495 124.124151 
L 451.916837 124.461295 
L 453.210224 131.674365 
L 453.533586 132.24335 
L 454.18027 130.279271 
L 454.826973 127.521965 
L 455.150315 126.313656 
L 455.473677 124.438008 
L 455.797019 123.720581 
L 456.12036 124.031775 
L 456.767064 126.68561 
L 457.413768 127.428776 
L 458.060471 128.557774 
L 458.383813 127.907047 
L 459.030517 125.958006 
L 459.353859 125.456711 
L 459.6772 124.536436 
L 460.323904 121.936741 
L 461.940653 118.724154 
L 467.437584 118.717356 
L 721 118.717356 
L 721 118.717356 
" clip-path="url(#p0a6f037fe7)" style="fill: none; stroke: #1f77b4; stroke-width: 1.5; stroke-linecap: square"/>
   </g>
   <g id="matplotlib.axis_3"/>
   <g id="matplotlib.axis_4"/>
   <g id="patch_8">
    <path d="M 394.363636 166.932313 
L 394.363636 70.5024 
" style="fill: none; stroke: #000000; stroke-width: 0.8; stroke-linejoin: miter; stroke-linecap: square"/>
   </g>
   <g id="patch_9">
    <path d="M 648 166.932313 
L 648 70.5024 
" style="fill: none; stroke: #000000; stroke-width: 0.8; stroke-linejoin: miter; stroke-linecap: square"/>
   </g>
   <g id="patch_10">
    <path d="M 394.363636 166.932313 
L 648 166.932313 
" style="fill: none; stroke: #000000; stroke-width: 0.8; stroke-linejoin: miter; stroke-linecap: square"/>
   </g>
   <g id="patch_11">
    <path d="M 394.363636 70.5024 
L 648 70.5024 
" style="fill: none; stroke: #000000; stroke-width: 0.8; stroke-linejoin: miter; stroke-linecap: square"/>
   </g>
  </g>
  <g id="axes_3">
   <g id="patch_12">
    <path d="M 90 282.648209 
L 343.636364 282.648209 
L 343.636364 186.218296 
L 90 186.218296 
z
" style="fill: #ffffff"/>
   </g>
   <g id="line2d_5">
    <path d="M -1 234.769068 
L 78.356552 235.264985 
L 106.164568 235.84212 
L 119.745204 236.517812 
L 127.505588 237.286464 
L 132.679157 238.181821 
L 135.589293 238.842373 
L 136.235997 238.882036 
L 136.882701 238.516378 
L 137.206042 238.77794 
L 137.529384 239.210688 
L 137.852746 239.286465 
L 138.176088 239.721686 
L 139.146133 242.288081 
L 140.439521 247.404403 
L 141.086224 248.909686 
L 141.409586 249.543061 
L 141.732928 249.752321 
L 143.349677 246.698721 
L 143.673019 246.473457 
L 143.996361 246.083328 
L 144.643064 244.953774 
L 144.966406 245.050784 
L 145.61311 246.967025 
L 145.936451 247.389304 
L 146.259813 247.46347 
L 146.583155 247.084498 
L 146.906497 246.210204 
L 147.229859 245.69157 
L 147.553201 245.967563 
L 147.876542 245.747878 
L 148.199904 244.798181 
L 149.16995 237.665187 
L 151.11004 219.799634 
L 151.756724 214.610358 
L 152.080086 213.043911 
L 152.403428 213.1612 
L 153.050131 214.300548 
L 153.696835 216.127214 
L 154.343519 217.468091 
L 154.990222 220.956542 
L 155.960268 224.286687 
L 156.283609 225.052764 
L 156.930313 226.008992 
L 157.253655 226.773938 
L 157.577017 227.079669 
L 157.900359 227.227381 
L 158.870404 227.985385 
L 160.487153 228.958522 
L 162.427244 229.797792 
L 165.014039 230.579633 
L 168.570858 231.298221 
L 171.804357 231.753501 
L 176.00789 232.182097 
L 185.061661 232.758435 
L 200.582398 233.27598 
L 231.623882 233.734504 
L 314.077815 234.142735 
L 373.897351 234.27407 
L 478.015655 234.430511 
L 478.015655 234.430511 
" clip-path="url(#pf19122348c)" style="fill: none; stroke: #ff0000; stroke-width: 1.5; stroke-linecap: square"/>
   </g>
   <g id="line2d_6">
    <path d="M -1 234.433252 
L 136.559339 234.400081 
L 137.529384 233.168791 
L 137.852746 232.901323 
L 138.176088 232.168222 
L 139.146133 231.119177 
L 139.469475 231.098069 
L 139.792837 231.429443 
L 140.439521 233.416125 
L 141.086224 235.782195 
L 141.409586 237.126119 
L 142.05627 240.550729 
L 143.026315 243.153573 
L 143.673019 243.885869 
L 144.319722 244.849337 
L 144.643064 244.784885 
L 144.966406 244.288768 
L 145.289768 244.367281 
L 145.936451 246.793598 
L 146.906497 251.297605 
L 147.229859 251.86124 
L 147.553201 253.110989 
L 149.16995 263.013551 
L 149.493291 263.422063 
L 149.816633 263.619082 
L 150.139995 263.605635 
L 150.463337 263.17679 
L 150.786679 261.917125 
L 151.433382 258.178277 
L 152.080086 251.549989 
L 152.726769 245.388823 
L 153.373473 241.099217 
L 154.66688 234.786333 
L 154.990222 234.527887 
L 155.313564 234.041399 
L 155.960268 233.844114 
L 156.283609 234.083573 
L 156.606971 234.123913 
L 156.930313 233.932111 
L 157.253655 234.05895 
L 157.577017 234.427286 
L 163.720631 234.433252 
L 478.015655 234.433251 
L 478.015655 234.433251 
" clip-path="url(#pf19122348c)" style="fill: none; stroke: #1f77b4; stroke-width: 1.5; stroke-linecap: square"/>
   </g>
   <g id="matplotlib.axis_5"/>
   <g id="matplotlib.axis_6"/>
   <g id="patch_13">
    <path d="M 90 282.648209 
L 90 186.218296 
" style="fill: none; stroke: #000000; stroke-width: 0.8; stroke-linejoin: miter; stroke-linecap: square"/>
   </g>
   <g id="patch_14">
    <path d="M 343.636364 282.648209 
L 343.636364 186.218296 
" style="fill: none; stroke: #000000; stroke-width: 0.8; stroke-linejoin: miter; stroke-linecap: square"/>
   </g>
   <g id="patch_15">
    <path d="M 90 282.648209 
L 343.636364 282.648209 
" style="fill: none; stroke: #000000; stroke-width: 0.8; stroke-linejoin: miter; stroke-linecap: square"/>
   </g>
   <g id="patch_16">
    <path d="M 90 186.218296 
L 343.636364 186.218296 
" style="fill: none; stroke: #000000; stroke-width: 0.8; stroke-linejoin: miter; stroke-linecap: square"/>
   </g>
  </g>
  <g id="axes_4">
   <g id="patch_17">
    <path d="M 394.363636 282.648209 
L 648 282.648209 
L 648 186.218296 
L 394.363636 186.218296 
z
" style="fill: #ffffff"/>
   </g>
   <g id="line2d_7">
    <path d="M 120.484357 234.431724 
L 330.661057 234.123795 
L 378.193323 233.877317 
L 404.707912 233.525252 
L 418.288568 233.11356 
L 426.048932 232.655181 
L 430.899179 232.15577 
L 434.132657 231.618158 
L 436.39609 231.037939 
L 438.012839 230.42131 
L 439.306246 229.676064 
L 440.276292 228.767301 
L 440.599633 228.333377 
L 440.922975 227.617749 
L 441.569679 225.897251 
L 441.893021 226.061816 
L 443.186428 228.230919 
L 443.50977 227.808431 
L 443.833111 226.546198 
L 444.156473 225.995121 
L 444.803157 225.411039 
L 445.126519 224.322282 
L 445.449861 224.49581 
L 445.773222 225.277751 
L 446.743268 229.606586 
L 447.389951 230.826245 
L 448.036655 232.758058 
L 448.359997 233.313132 
L 448.683359 234.166856 
L 449.330042 237.020508 
L 449.976746 237.862706 
L 450.62345 237.614839 
L 450.946791 238.318316 
L 451.270133 238.621341 
L 451.593495 238.502533 
L 451.916837 238.073007 
L 452.240179 238.021103 
L 452.563541 237.660993 
L 452.886882 237.633033 
L 453.210224 237.99518 
L 453.533586 238.046474 
L 453.856928 238.240585 
L 454.503631 239.133335 
L 454.826973 239.171915 
L 455.150315 239.805879 
L 455.473677 240.998755 
L 455.797019 241.441524 
L 456.12036 241.512037 
L 456.443722 241.355 
L 456.767064 240.952364 
L 457.090406 241.825872 
L 457.413768 243.629643 
L 457.737109 244.166109 
L 458.383813 241.182781 
L 458.707155 240.873756 
L 459.030517 240.74922 
L 459.353859 240.244637 
L 460.000562 238.108224 
L 460.323904 238.151866 
L 460.647246 239.434602 
L 460.970608 240.008886 
L 461.293949 239.417435 
L 462.587337 238.372621 
L 463.557382 237.925931 
L 465.497493 237.354926 
L 468.407629 236.813494 
L 471.964449 236.384689 
L 477.784742 235.947853 
L 486.838503 235.558465 
L 501.712546 235.221625 
L 528.550497 234.936632 
L 566.058957 234.753325 
L 634.932244 234.596377 
L 721 234.490753 
L 721 234.490753 
" clip-path="url(#paa623e1f32)" style="fill: none; stroke: #ff0000; stroke-width: 1.5; stroke-linecap: square"/>
   </g>
   <g id="line2d_8">
    <path d="M 120.484357 234.433252 
L 440.922975 234.428063 
L 441.246337 233.932647 
L 442.216383 230.564138 
L 442.539724 230.260214 
L 442.863066 230.27377 
L 443.186428 230.512638 
L 443.50977 231.388041 
L 443.833111 231.113059 
L 444.479815 229.453701 
L 444.803157 229.068534 
L 445.126519 227.809837 
L 445.773222 224.056947 
L 446.096564 222.555495 
L 446.419906 222.267359 
L 447.06661 222.44358 
L 447.389951 222.000496 
L 447.713313 221.785698 
L 448.036655 222.039669 
L 448.359997 221.915073 
L 449.006701 221.50619 
L 450.300088 225.121389 
L 450.62345 225.021058 
L 450.946791 225.312859 
L 451.593495 226.86303 
L 452.240179 227.26788 
L 452.563541 227.398695 
L 452.886882 226.987545 
L 453.533586 227.025494 
L 453.856928 226.789143 
L 454.18027 226.733433 
L 454.503631 227.022606 
L 454.826973 227.003455 
L 455.150315 226.589372 
L 455.473677 227.001793 
L 456.12036 228.683475 
L 456.443722 229.333094 
L 456.767064 229.191306 
L 457.090406 228.565355 
L 457.413768 229.450444 
L 458.060471 233.769114 
L 458.383813 233.787024 
L 458.707155 233.535805 
L 459.030517 233.896589 
L 459.353859 234.479179 
L 459.6772 234.752344 
L 460.000562 234.058159 
L 460.323904 232.745208 
L 460.647246 232.394478 
L 460.970608 233.50492 
L 461.293949 234.131908 
L 461.617291 234.187979 
L 461.940653 234.404225 
L 463.23404 234.433252 
L 721 234.433252 
L 721 234.433252 
" clip-path="url(#paa623e1f32)" style="fill: none; stroke: #1f77b4; stroke-width: 1.5; stroke-linecap: square"/>
   </g>
   <g id="matplotlib.axis_7"/>
   <g id="matplotlib.axis_8"/>
   <g id="patch_18">
    <path d="M 394.363636 282.648209 
L 394.363636 186.218296 
" style="fill: none; stroke: #000000; stroke-width: 0.8; stroke-linejoin: miter; stroke-linecap: square"/>
   </g>
   <g id="patch_19">
    <path d="M 648 282.648209 
L 648 186.218296 
" style="fill: none; stroke: #000000; stroke-width: 0.8; stroke-linejoin: miter; stroke-linecap: square"/>
   </g>
   <g id="patch_20">
    <path d="M 394.363636 282.648209 
L 648 282.648209 
" style="fill: none; stroke: #000000; stroke-width: 0.8; stroke-linejoin: miter; stroke-linecap: square"/>
   </g>
   <g id="patch_21">
    <path d="M 394.363636 186.218296 
L 648 186.218296 
" style="fill: none; stroke: #000000; stroke-width: 0.8; stroke-linejoin: miter; stroke-linecap: square"/>
   </g>
  </g>
  <g id="axes_5">
   <g id="patch_22">
    <path d="M 90 398.364104 
L 343.636364 398.364104 
L 343.636364 301.934191 
L 90 301.934191 
z
" style="fill: #ffffff"/>
   </g>
   <g id="line2d_9">
    <path d="M -1 350.329733 
L 26.29742 350.387193 
L 44.0816 350.436269 
L 61.219076 350.506675 
L 73.182983 350.56884 
L 85.14689 350.662758 
L 93.230596 350.742 
L 101.961025 350.872807 
L 107.457956 350.975011 
L 113.60159 351.15054 
L 117.15841 351.273198 
L 122.008637 351.535959 
L 124.27209 351.684019 
L 131.38577 352.64898 
L 133.972544 353.535948 
L 135.265952 354.439866 
L 135.912655 355.267738 
L 136.235997 355.979436 
L 136.559339 357.163278 
L 136.882701 359.33721 
L 137.206042 359.170877 
L 137.852746 356.67362 
L 138.176088 355.921771 
L 138.49943 354.012996 
L 139.146133 348.023839 
L 139.469475 346.160321 
L 140.116179 348.194846 
L 140.762882 349.387272 
L 141.086224 350.210835 
L 141.732928 354.60359 
L 142.05627 355.369386 
L 142.379632 355.001155 
L 143.673019 360.115296 
L 144.643064 360.607055 
L 144.966406 360.242004 
L 146.583155 348.288268 
L 147.553201 339.000711 
L 147.876542 336.281337 
L 148.199904 335.01752 
L 148.523246 335.56362 
L 148.846588 336.354081 
L 149.16995 339.193166 
L 150.139995 350.390719 
L 150.463337 351.343067 
L 150.786679 350.928176 
L 151.11004 350.093361 
L 151.433382 349.767042 
L 151.756724 349.181048 
L 152.080086 347.580089 
L 152.403428 346.709293 
L 152.726769 347.258003 
L 153.050131 349.111559 
L 153.373473 349.883166 
L 153.696835 349.820188 
L 154.020177 349.897882 
L 155.313564 344.833103 
L 155.636926 344.188067 
L 155.960268 344.073673 
L 156.283609 343.254407 
L 156.606971 343.107221 
L 156.930313 343.837491 
L 157.253655 345.497697 
L 157.577017 346.22973 
L 157.900359 346.214451 
L 158.2237 346.534402 
L 160.810495 347.561771 
L 163.073948 348.033272 
L 167.277471 348.533015 
L 170.510949 348.775362 
L 174.067809 348.973546 
L 200.582398 349.572995 
L 212.546305 349.680537 
L 223.216815 349.753548 
L 238.4142 349.823823 
L 253.611596 349.878904 
L 274.629274 349.931415 
L 297.587032 349.976535 
L 329.921904 350.022346 
L 373.897351 350.06863 
L 444.064024 350.125046 
L 478.015655 350.149667 
L 478.015655 350.149667 
" clip-path="url(#p16728595ae)" style="fill: none; stroke: #ff0000; stroke-width: 1.5; stroke-linecap: square"/>
   </g>
   <g id="line2d_10">
    <path d="M -1 350.149148 
L 136.559339 350.127193 
L 136.882701 351.685763 
L 137.206042 354.860873 
L 137.852746 357.327838 
L 138.176088 358.306824 
L 138.49943 360.247617 
L 138.822792 360.152145 
L 139.146133 358.681436 
L 139.792837 352.732569 
L 140.116179 351.944709 
L 140.439521 350.839353 
L 140.762882 350.14289 
L 141.086224 348.465798 
L 141.409586 347.860997 
L 142.05627 350.232486 
L 142.379632 350.596781 
L 142.702973 349.993635 
L 143.349677 351.670161 
L 144.643064 359.226104 
L 145.289768 364.624475 
L 146.583155 368.582425 
L 146.906497 368.104472 
L 147.229859 366.835706 
L 147.553201 364.8899 
L 147.876542 361.908036 
L 148.846588 350.200166 
L 149.16995 346.453402 
L 149.493291 345.004979 
L 149.816633 345.071503 
L 150.139995 347.183961 
L 150.786679 352.080808 
L 151.11004 353.046333 
L 151.433382 353.509607 
L 151.756724 354.492774 
L 152.080086 354.608435 
L 152.726769 351.827715 
L 153.050131 351.589299 
L 153.373473 353.066377 
L 153.696835 353.796671 
L 154.343519 356.383079 
L 154.66688 356.57122 
L 154.990222 356.082828 
L 156.283609 353.0656 
L 156.930313 349.968648 
L 157.253655 349.386955 
L 157.577017 350.142164 
L 162.750586 350.149148 
L 478.015655 350.149148 
L 478.015655 350.149148 
" clip-path="url(#p16728595ae)" style="fill: none; stroke: #1f77b4; stroke-width: 1.5; stroke-linecap: square"/>
   </g>
   <g id="matplotlib.axis_9"/>
   <g id="matplotlib.axis_10"/>
   <g id="patch_23">
    <path d="M 90 398.364104 
L 90 301.934191 
" style="fill: none; stroke: #000000; stroke-width: 0.8; stroke-linejoin: miter; stroke-linecap: square"/>
   </g>
   <g id="patch_24">
    <path d="M 343.636364 398.364104 
L 343.636364 301.934191 
" style="fill: none; stroke: #000000; stroke-width: 0.8; stroke-linejoin: miter; stroke-linecap: square"/>
   </g>
   <g id="patch_25">
    <path d="M 90 398.364104 
L 343.636364 398.364104 
" style="fill: none; stroke: #000000; stroke-width: 0.8; stroke-linejoin: miter; stroke-linecap: square"/>
   </g>
   <g id="patch_26">
    <path d="M 90 301.934191 
L 343.636364 301.934191 
" style="fill: none; stroke: #000000; stroke-width: 0.8; stroke-linejoin: miter; stroke-linecap: square"/>
   </g>
  </g>
  <g id="axes_6">
   <g id="patch_27">
    <path d="M 394.363636 398.364104 
L 648 398.364104 
L 648 301.934191 
L 394.363636 301.934191 
z
" style="fill: #ffffff"/>
   </g>
   <g id="line2d_11">
    <path d="M 120.484357 350.146876 
L 322.253969 350.468822 
L 396.624187 350.981423 
L 419.581955 351.582961 
L 425.078886 351.872303 
L 432.83927 352.582917 
L 437.042793 353.331785 
L 438.659543 353.778951 
L 440.599633 354.617007 
L 440.922975 354.761114 
L 441.246337 355.348388 
L 441.569679 356.20674 
L 441.893021 356.682721 
L 442.216383 356.739168 
L 442.539724 356.096367 
L 442.863066 355.862391 
L 443.186428 354.539554 
L 443.50977 354.71506 
L 443.833111 355.435985 
L 444.156473 355.502112 
L 444.479815 356.168877 
L 445.126519 355.669903 
L 445.449861 356.424906 
L 445.773222 358.353712 
L 446.096564 358.556194 
L 446.419906 358.288807 
L 446.743268 357.786393 
L 447.06661 357.679164 
L 447.389951 357.373274 
L 447.713313 356.89151 
L 448.036655 355.514078 
L 448.359997 355.157056 
L 448.683359 355.314549 
L 449.006701 355.016483 
L 449.330042 355.497733 
L 449.653404 355.439119 
L 450.300088 357.855618 
L 451.916837 360.023246 
L 452.240179 358.827871 
L 452.563541 356.706174 
L 453.210224 350.513921 
L 453.533586 349.708846 
L 453.856928 350.97124 
L 454.18027 353.348077 
L 454.503631 354.244504 
L 454.826973 353.727307 
L 455.473677 349.69497 
L 455.797019 348.296447 
L 456.12036 347.452938 
L 456.443722 347.01361 
L 456.767064 345.969807 
L 457.090406 344.527931 
L 458.383813 335.564369 
L 458.707155 334.762122 
L 459.353859 336.327626 
L 460.000562 339.276342 
L 460.647246 340.57528 
L 460.970608 340.856067 
L 461.293949 339.997712 
L 461.617291 340.511265 
L 461.940653 341.975842 
L 462.910699 343.531217 
L 463.557382 344.209075 
L 464.204086 344.732406 
L 465.174131 345.367935 
L 467.760926 346.424203 
L 471.641108 347.324749 
L 478.108084 348.123266 
L 489.425297 348.787264 
L 495.568922 348.998239 
L 529.197191 349.533987 
L 670.177262 350.010259 
L 721 350.077277 
L 721 350.077277 
" clip-path="url(#p610651db72)" style="fill: none; stroke: #ff0000; stroke-width: 1.5; stroke-linecap: square"/>
   </g>
   <g id="line2d_12">
    <path d="M 120.484357 350.149148 
L 440.599633 350.149148 
L 440.922975 350.018354 
L 441.246337 349.748423 
L 441.569679 350.152663 
L 441.893021 350.880826 
L 442.216383 351.95897 
L 442.863066 352.918682 
L 443.186428 352.93049 
L 443.50977 351.535789 
L 443.833111 351.803966 
L 444.156473 351.597056 
L 444.803157 352.349734 
L 445.126519 352.020548 
L 445.449861 351.050562 
L 445.773222 351.755749 
L 446.096564 353.449862 
L 446.743268 355.023776 
L 447.06661 355.389973 
L 447.713313 356.777778 
L 448.036655 357.04203 
L 448.359997 355.976322 
L 448.683359 356.085566 
L 449.006701 355.524048 
L 449.330042 355.392289 
L 449.976746 354.44493 
L 451.593495 359.439348 
L 452.563541 366.069398 
L 452.886882 366.71155 
L 453.533586 362.449018 
L 453.856928 360.298564 
L 454.18027 360.657621 
L 455.150315 366.525828 
L 455.473677 366.567603 
L 455.797019 366.302011 
L 456.12036 365.801328 
L 456.443722 366.001125 
L 457.090406 367.060143 
L 457.413768 367.334718 
L 457.737109 366.58644 
L 458.060471 364.925041 
L 458.383813 362.622536 
L 459.030517 356.737905 
L 459.6772 353.22549 
L 460.323904 352.729484 
L 460.647246 352.515972 
L 460.970608 352.79598 
L 461.293949 352.311553 
L 461.617291 350.459749 
L 461.940653 350.157276 
L 466.467539 350.149148 
L 721 350.149148 
L 721 350.149148 
" clip-path="url(#p610651db72)" style="fill: none; stroke: #1f77b4; stroke-width: 1.5; stroke-linecap: square"/>
   </g>
   <g id="matplotlib.axis_11"/>
   <g id="matplotlib.axis_12"/>
   <g id="patch_28">
    <path d="M 394.363636 398.364104 
L 394.363636 301.934191 
" style="fill: none; stroke: #000000; stroke-width: 0.8; stroke-linejoin: miter; stroke-linecap: square"/>
   </g>
   <g id="patch_29">
    <path d="M 648 398.364104 
L 648 301.934191 
" style="fill: none; stroke: #000000; stroke-width: 0.8; stroke-linejoin: miter; stroke-linecap: square"/>
   </g>
   <g id="patch_30">
    <path d="M 394.363636 398.364104 
L 648 398.364104 
" style="fill: none; stroke: #000000; stroke-width: 0.8; stroke-linejoin: miter; stroke-linecap: square"/>
   </g>
   <g id="patch_31">
    <path d="M 394.363636 301.934191 
L 648 301.934191 
" style="fill: none; stroke: #000000; stroke-width: 0.8; stroke-linejoin: miter; stroke-linecap: square"/>
   </g>
  </g>
  <g id="axes_7">
   <g id="patch_32">
    <path d="M 90 514.08 
L 343.636364 514.08 
L 343.636364 417.650087 
L 90 417.650087 
z
" style="fill: #ffffff"/>
   </g>
   <g id="line2d_13">
    <path d="M -1 466.058169 
L 81.59005 466.375287 
L 109.721388 466.785368 
L 118.128455 467.061707 
L 123.625386 467.346921 
L 130.739066 468.030492 
L 134.295906 468.788594 
L 135.265952 469.138559 
L 135.912655 469.539238 
L 136.559339 470.423718 
L 137.206042 471.754674 
L 137.529384 471.252291 
L 138.822792 464.386175 
L 139.469475 463.254051 
L 139.792837 464.50015 
L 141.732928 478.055379 
L 142.05627 478.776814 
L 142.379632 478.788195 
L 142.702973 477.965316 
L 143.026315 477.717182 
L 143.996361 473.640354 
L 144.319722 473.032669 
L 144.966406 476.714873 
L 146.259813 488.450179 
L 146.583155 489.412426 
L 146.906497 488.749843 
L 147.229859 486.842507 
L 147.553201 483.731402 
L 148.523246 467.31409 
L 149.493291 448.890813 
L 150.139995 439.496854 
L 151.11004 432.581512 
L 151.433382 432.084514 
L 151.756724 432.106163 
L 152.080086 432.997606 
L 152.726769 440.180542 
L 153.050131 444.229176 
L 154.66688 470.404082 
L 154.990222 471.574783 
L 155.313564 471.182223 
L 155.960268 467.639783 
L 156.283609 466.432766 
L 156.930313 463.661877 
L 157.253655 463.482995 
L 157.577017 463.848039 
L 157.900359 463.743499 
L 158.2237 463.793885 
L 158.870404 463.761613 
L 159.840449 463.746415 
L 162.103902 463.914434 
L 165.33738 464.165606 
L 179.56473 464.853031 
L 196.702216 465.199292 
L 219.336623 465.414737 
L 263.31206 465.602712 
L 367.107012 465.771119 
L 478.015655 465.865373 
L 478.015655 465.865373 
" clip-path="url(#p051476e5dd)" style="fill: none; stroke: #ff0000; stroke-width: 1.5; stroke-linecap: square"/>
   </g>
   <g id="line2d_14">
    <path d="M -1 465.865044 
L 136.235997 465.865044 
L 136.559339 465.989241 
L 136.882701 466.500685 
L 137.206042 467.789125 
L 137.529384 469.628237 
L 137.852746 470.486715 
L 138.176088 470.723319 
L 138.49943 470.625924 
L 140.116179 459.766681 
L 140.439521 459.633849 
L 140.762882 459.34223 
L 141.086224 459.751775 
L 141.409586 460.803807 
L 141.732928 462.508252 
L 142.379632 467.342218 
L 143.349677 471.82694 
L 143.996361 471.152567 
L 144.643064 467.615483 
L 144.966406 466.873624 
L 145.289768 467.200411 
L 145.61311 468.339931 
L 145.936451 470.410914 
L 146.583155 480.115873 
L 147.553201 496.063357 
L 148.199904 502.890575 
L 148.523246 505.098934 
L 148.846588 505.147982 
L 149.16995 503.512264 
L 149.816633 497.926453 
L 151.756724 468.361082 
L 152.403428 456.553188 
L 153.373473 446.203585 
L 153.696835 445.351288 
L 154.020177 446.949501 
L 154.343519 449.720907 
L 155.636926 465.251643 
L 155.960268 466.059255 
L 156.283609 467.177343 
L 156.606971 467.373926 
L 156.930313 466.83957 
L 157.253655 465.900979 
L 157.900359 465.865043 
L 478.015655 465.865045 
L 478.015655 465.865045 
" clip-path="url(#p051476e5dd)" style="fill: none; stroke: #1f77b4; stroke-width: 1.5; stroke-linecap: square"/>
   </g>
   <g id="matplotlib.axis_13">
    <g id="xtick_1">
     <g id="line2d_15">
      <defs>
       <path id="m1ac320e868" d="M 0 0 
L 0 3.5 
" style="stroke: #000000; stroke-width: 0.8"/>
      </defs>
      <g>
       <use xlink:href="#m1ac320e868" x="343.636364" y="514.08" style="stroke: #000000; stroke-width: 0.8"/>
      </g>
     </g>
     <g id="text_1">
      <!-- 0 -->
      <g transform="translate(340.455114 528.678438)scale(0.1 -0.1)">
       <defs>
        <path id="DejaVuSans-30" d="M 2034 4250 
Q 1547 4250 1301 3770 
Q 1056 3291 1056 2328 
Q 1056 1369 1301 889 
Q 1547 409 2034 409 
Q 2525 409 2770 889 
Q 3016 1369 3016 2328 
Q 3016 3291 2770 3770 
Q 2525 4250 2034 4250 
z
M 2034 4750 
Q 2819 4750 3233 4129 
Q 3647 3509 3647 2328 
Q 3647 1150 3233 529 
Q 2819 -91 2034 -91 
Q 1250 -91 836 529 
Q 422 1150 422 2328 
Q 422 3509 836 4129 
Q 1250 4750 2034 4750 
z
" transform="scale(0.015625)"/>
       </defs>
       <use xlink:href="#DejaVuSans-30"/>
      </g>
     </g>
    </g>
    <g id="xtick_2">
     <g id="line2d_16">
      <g>
       <use xlink:href="#m1ac320e868" x="301.363636" y="514.08" style="stroke: #000000; stroke-width: 0.8"/>
      </g>
     </g>
     <g id="text_2">
      <!-- 1 -->
      <g transform="translate(298.182386 528.678438)scale(0.1 -0.1)">
       <defs>
        <path id="DejaVuSans-31" d="M 794 531 
L 1825 531 
L 1825 4091 
L 703 3866 
L 703 4441 
L 1819 4666 
L 2450 4666 
L 2450 531 
L 3481 531 
L 3481 0 
L 794 0 
L 794 531 
z
" transform="scale(0.015625)"/>
       </defs>
       <use xlink:href="#DejaVuSans-31"/>
      </g>
     </g>
    </g>
    <g id="xtick_3">
     <g id="line2d_17">
      <g>
       <use xlink:href="#m1ac320e868" x="259.090909" y="514.08" style="stroke: #000000; stroke-width: 0.8"/>
      </g>
     </g>
     <g id="text_3">
      <!-- 2 -->
      <g transform="translate(255.909659 528.678438)scale(0.1 -0.1)">
       <defs>
        <path id="DejaVuSans-32" d="M 1228 531 
L 3431 531 
L 3431 0 
L 469 0 
L 469 531 
Q 828 903 1448 1529 
Q 2069 2156 2228 2338 
Q 2531 2678 2651 2914 
Q 2772 3150 2772 3378 
Q 2772 3750 2511 3984 
Q 2250 4219 1831 4219 
Q 1534 4219 1204 4116 
Q 875 4013 500 3803 
L 500 4441 
Q 881 4594 1212 4672 
Q 1544 4750 1819 4750 
Q 2544 4750 2975 4387 
Q 3406 4025 3406 3419 
Q 3406 3131 3298 2873 
Q 3191 2616 2906 2266 
Q 2828 2175 2409 1742 
Q 1991 1309 1228 531 
z
" transform="scale(0.015625)"/>
       </defs>
       <use xlink:href="#DejaVuSans-32"/>
      </g>
     </g>
    </g>
    <g id="xtick_4">
     <g id="line2d_18">
      <g>
       <use xlink:href="#m1ac320e868" x="216.818182" y="514.08" style="stroke: #000000; stroke-width: 0.8"/>
      </g>
     </g>
     <g id="text_4">
      <!-- 3 -->
      <g transform="translate(213.636932 528.678438)scale(0.1 -0.1)">
       <defs>
        <path id="DejaVuSans-33" d="M 2597 2516 
Q 3050 2419 3304 2112 
Q 3559 1806 3559 1356 
Q 3559 666 3084 287 
Q 2609 -91 1734 -91 
Q 1441 -91 1130 -33 
Q 819 25 488 141 
L 488 750 
Q 750 597 1062 519 
Q 1375 441 1716 441 
Q 2309 441 2620 675 
Q 2931 909 2931 1356 
Q 2931 1769 2642 2001 
Q 2353 2234 1838 2234 
L 1294 2234 
L 1294 2753 
L 1863 2753 
Q 2328 2753 2575 2939 
Q 2822 3125 2822 3475 
Q 2822 3834 2567 4026 
Q 2313 4219 1838 4219 
Q 1578 4219 1281 4162 
Q 984 4106 628 3988 
L 628 4550 
Q 988 4650 1302 4700 
Q 1616 4750 1894 4750 
Q 2613 4750 3031 4423 
Q 3450 4097 3450 3541 
Q 3450 3153 3228 2886 
Q 3006 2619 2597 2516 
z
" transform="scale(0.015625)"/>
       </defs>
       <use xlink:href="#DejaVuSans-33"/>
      </g>
     </g>
    </g>
    <g id="xtick_5">
     <g id="line2d_19">
      <g>
       <use xlink:href="#m1ac320e868" x="174.545455" y="514.08" style="stroke: #000000; stroke-width: 0.8"/>
      </g>
     </g>
     <g id="text_5">
      <!-- 4 -->
      <g transform="translate(171.364205 528.678438)scale(0.1 -0.1)">
       <defs>
        <path id="DejaVuSans-34" d="M 2419 4116 
L 825 1625 
L 2419 1625 
L 2419 4116 
z
M 2253 4666 
L 3047 4666 
L 3047 1625 
L 3713 1625 
L 3713 1100 
L 3047 1100 
L 3047 0 
L 2419 0 
L 2419 1100 
L 313 1100 
L 313 1709 
L 2253 4666 
z
" transform="scale(0.015625)"/>
       </defs>
       <use xlink:href="#DejaVuSans-34"/>
      </g>
     </g>
    </g>
    <g id="xtick_6">
     <g id="line2d_20">
      <g>
       <use xlink:href="#m1ac320e868" x="132.272727" y="514.08" style="stroke: #000000; stroke-width: 0.8"/>
      </g>
     </g>
     <g id="text_6">
      <!-- 5 -->
      <g transform="translate(129.091477 528.678438)scale(0.1 -0.1)">
       <defs>
        <path id="DejaVuSans-35" d="M 691 4666 
L 3169 4666 
L 3169 4134 
L 1269 4134 
L 1269 2991 
Q 1406 3038 1543 3061 
Q 1681 3084 1819 3084 
Q 2600 3084 3056 2656 
Q 3513 2228 3513 1497 
Q 3513 744 3044 326 
Q 2575 -91 1722 -91 
Q 1428 -91 1123 -41 
Q 819 9 494 109 
L 494 744 
Q 775 591 1075 516 
Q 1375 441 1709 441 
Q 2250 441 2565 725 
Q 2881 1009 2881 1497 
Q 2881 1984 2565 2268 
Q 2250 2553 1709 2553 
Q 1456 2553 1204 2497 
Q 953 2441 691 2322 
L 691 4666 
z
" transform="scale(0.015625)"/>
       </defs>
       <use xlink:href="#DejaVuSans-35"/>
      </g>
     </g>
    </g>
    <g id="xtick_7">
     <g id="line2d_21">
      <g>
       <use xlink:href="#m1ac320e868" x="90" y="514.08" style="stroke: #000000; stroke-width: 0.8"/>
      </g>
     </g>
     <g id="text_7">
      <!-- 6 -->
      <g transform="translate(86.81875 528.678438)scale(0.1 -0.1)">
       <defs>
        <path id="DejaVuSans-36" d="M 2113 2584 
Q 1688 2584 1439 2293 
Q 1191 2003 1191 1497 
Q 1191 994 1439 701 
Q 1688 409 2113 409 
Q 2538 409 2786 701 
Q 3034 994 3034 1497 
Q 3034 2003 2786 2293 
Q 2538 2584 2113 2584 
z
M 3366 4563 
L 3366 3988 
Q 3128 4100 2886 4159 
Q 2644 4219 2406 4219 
Q 1781 4219 1451 3797 
Q 1122 3375 1075 2522 
Q 1259 2794 1537 2939 
Q 1816 3084 2150 3084 
Q 2853 3084 3261 2657 
Q 3669 2231 3669 1497 
Q 3669 778 3244 343 
Q 2819 -91 2113 -91 
Q 1303 -91 875 529 
Q 447 1150 447 2328 
Q 447 3434 972 4092 
Q 1497 4750 2381 4750 
Q 2619 4750 2861 4703 
Q 3103 4656 3366 4563 
z
" transform="scale(0.015625)"/>
       </defs>
       <use xlink:href="#DejaVuSans-36"/>
      </g>
     </g>
    </g>
   </g>
   <g id="matplotlib.axis_14"/>
   <g id="patch_33">
    <path d="M 90 514.08 
L 90 417.650087 
" style="fill: none; stroke: #000000; stroke-width: 0.8; stroke-linejoin: miter; stroke-linecap: square"/>
   </g>
   <g id="patch_34">
    <path d="M 343.636364 514.08 
L 343.636364 417.650087 
" style="fill: none; stroke: #000000; stroke-width: 0.8; stroke-linejoin: miter; stroke-linecap: square"/>
   </g>
   <g id="patch_35">
    <path d="M 90 514.08 
L 343.636364 514.08 
" style="fill: none; stroke: #000000; stroke-width: 0.8; stroke-linejoin: miter; stroke-linecap: square"/>
   </g>
   <g id="patch_36">
    <path d="M 90 417.650087 
L 343.636364 417.650087 
" style="fill: none; stroke: #000000; stroke-width: 0.8; stroke-linejoin: miter; stroke-linecap: square"/>
   </g>
  </g>
  <g id="axes_8">
   <g id="patch_37">
    <path d="M 394.363636 514.08 
L 648 514.08 
L 648 417.650087 
L 394.363636 417.650087 
z
" style="fill: #ffffff"/>
   </g>
   <g id="line2d_22">
    <path d="M 120.484357 465.871422 
L 297.032788 465.536216 
L 303.823106 465.50827 
L 309.96674 465.492872 
L 315.463651 465.465807 
L 320.960582 465.45065 
L 325.810809 465.422715 
L 330.661057 465.408158 
L 335.511284 465.376514 
L 339.714827 465.362912 
L 343.918331 465.330758 
L 348.121874 465.314833 
L 351.678714 465.282626 
L 355.235554 465.268459 
L 358.792374 465.232325 
L 362.349234 465.215596 
L 365.906054 465.174654 
L 368.816211 465.160556 
L 371.726347 465.120671 
L 374.636483 465.103964 
L 377.54662 465.059092 
L 380.456756 465.039071 
L 382.720188 464.996498 
L 384.983641 464.98154 
L 387.247094 464.934277 
L 389.510527 464.916436 
L 391.773959 464.863543 
L 394.037412 464.842078 
L 396.300845 464.782332 
L 397.917594 464.769315 
L 399.534343 464.716493 
L 401.151072 464.700945 
L 402.767821 464.642756 
L 404.38457 464.62411 
L 406.001319 464.559562 
L 407.618048 464.537079 
L 409.234797 464.464904 
L 410.851546 464.437617 
L 412.468296 464.356162 
L 414.085025 464.322774 
L 415.701774 464.229848 
L 416.671819 464.217202 
L 417.641865 464.143711 
L 418.61191 464.12832 
L 419.581955 464.048238 
L 420.552001 464.029545 
L 421.522046 463.941783 
L 422.492092 463.919084 
L 423.462137 463.822279 
L 424.432183 463.794676 
L 425.402248 463.687095 
L 426.372273 463.65342 
L 427.342339 463.532817 
L 428.312384 463.491525 
L 429.28243 463.354922 
L 430.252475 463.303924 
L 431.222521 463.147247 
L 432.192566 463.083636 
L 433.162612 462.90106 
L 433.485953 462.913843 
L 433.809315 462.808357 
L 434.132657 462.82062 
L 434.455999 462.709334 
L 434.779361 462.721012 
L 435.102703 462.603215 
L 435.426044 462.614232 
L 435.749406 462.489038 
L 436.072748 462.499313 
L 436.39609 462.365573 
L 436.719452 462.375012 
L 437.042793 462.23116 
L 437.366135 462.239637 
L 437.689497 462.083367 
L 438.012839 462.090676 
L 438.336181 461.91822 
L 438.659543 461.923908 
L 438.982884 461.728099 
L 439.306246 461.730912 
L 439.629588 461.494715 
L 439.95293 461.490407 
L 440.276292 461.155553 
L 440.599633 461.128946 
L 440.922975 460.213236 
L 441.246337 459.822034 
L 442.216383 463.521921 
L 442.539724 463.979475 
L 442.863066 463.057133 
L 443.186428 463.417879 
L 443.50977 463.506449 
L 444.156473 459.491948 
L 444.479815 457.11372 
L 444.803157 452.145208 
L 445.126519 449.2571 
L 445.449861 448.609582 
L 445.773222 449.47573 
L 446.096564 449.145898 
L 446.419906 450.223413 
L 447.389951 460.22115 
L 447.713313 465.976943 
L 448.036655 469.549142 
L 448.359997 471.721964 
L 448.683359 472.3368 
L 449.006701 470.407875 
L 450.300088 454.30779 
L 450.946791 445.047301 
L 451.270133 440.38534 
L 451.593495 438.335 
L 451.916837 438.06644 
L 452.240179 439.40844 
L 452.886882 448.959898 
L 453.533586 450.202345 
L 453.856928 450.385264 
L 454.18027 452.051077 
L 455.150315 462.991857 
L 455.473677 464.150465 
L 456.443722 459.151651 
L 456.767064 459.047335 
L 457.090406 459.943961 
L 457.413768 463.29488 
L 458.383813 483.834113 
L 458.707155 488.621606 
L 459.030517 490.96507 
L 459.353859 491.111788 
L 460.000562 489.462304 
L 460.647246 485.627794 
L 460.970608 486.711052 
L 461.293949 485.59995 
L 461.940653 480.340674 
L 463.23404 476.413917 
L 463.557382 475.972664 
L 463.880744 475.263304 
L 464.204086 474.939113 
L 464.527448 474.364588 
L 464.850789 474.117283 
L 465.174131 473.636946 
L 465.497493 473.443485 
L 465.820835 473.032663 
L 466.144177 472.878602 
L 466.467539 472.521098 
L 466.79088 472.396809 
L 467.114222 472.081407 
L 467.437584 471.980184 
L 467.760926 471.698796 
L 468.084268 471.615799 
L 468.407629 471.362402 
L 468.730971 471.294042 
L 469.054313 471.064041 
L 469.377675 471.007598 
L 469.701017 470.797401 
L 470.024358 470.750774 
L 470.34772 470.557535 
L 470.671062 470.519072 
L 470.994404 470.340494 
L 471.317766 470.30888 
L 471.641108 470.143087 
L 471.964449 470.117263 
L 472.287811 469.962702 
L 472.611153 469.941806 
L 472.934495 469.797181 
L 473.257857 469.7805 
L 473.581198 469.644721 
L 473.90456 469.631669 
L 474.551244 469.493888 
L 475.197948 469.365948 
L 476.167993 469.138342 
L 477.138038 469.031498 
L 478.108084 468.840041 
L 479.078129 468.75568 
L 480.048175 468.59172 
L 481.01822 468.524135 
L 481.988266 468.381646 
L 482.958321 468.326873 
L 483.928367 468.201515 
L 484.898412 468.156717 
L 485.868457 468.045283 
L 486.838503 468.008381 
L 487.808548 467.908436 
L 488.778594 467.877872 
L 489.748639 467.787537 
L 490.718695 467.762121 
L 491.68874 467.67992 
L 492.658786 467.658733 
L 493.628831 467.583486 
L 495.24557 467.536871 
L 496.862309 467.443197 
L 498.479058 467.405464 
L 500.095807 467.323499 
L 501.712546 467.292625 
L 503.329285 467.220112 
L 504.946034 467.194622 
L 506.562784 467.129863 
L 508.179523 467.108664 
L 509.796262 467.050356 
L 511.413011 467.03262 
L 513.02976 466.979745 
L 515.293192 466.952146 
L 517.556635 466.893141 
L 519.820078 466.870392 
L 522.083531 466.818153 
L 524.346963 466.799208 
L 526.610406 466.752529 
L 528.873849 466.736614 
L 531.137281 466.694565 
L 534.047418 466.673664 
L 536.957564 466.629215 
L 539.8677 466.611757 
L 542.777837 466.572253 
L 545.687973 466.557506 
L 548.598119 466.522087 
L 552.154949 466.504504 
L 555.711799 466.468256 
L 559.268639 466.453378 
L 562.825469 466.421102 
L 567.029003 466.404519 
L 571.232536 466.372278 
L 575.43607 466.35813 
L 579.639604 466.329473 
L 584.489831 466.314274 
L 589.340068 466.286056 
L 594.836999 466.270326 
L 600.33393 466.243006 
L 606.477554 466.227105 
L 612.621179 466.200967 
L 619.411507 466.185119 
L 626.201835 466.160306 
L 633.638857 466.144614 
L 641.722562 466.119564 
L 650.452991 466.102598 
L 659.830104 466.07786 
L 670.500603 466.058671 
L 681.817807 466.033386 
L 695.075101 466.01134 
L 710.272507 465.98274 
L 721 465.966405 
L 721 465.966405 
" clip-path="url(#pda6a5f2ebd)" style="fill: none; stroke: #ff0000; stroke-width: 1.5; stroke-linecap: square"/>
   </g>
   <g id="line2d_23">
    <path d="M 120.484357 465.865043 
L 440.922975 465.899708 
L 441.569679 463.346712 
L 441.893021 463.61086 
L 442.216383 464.363621 
L 442.539724 466.057793 
L 442.863066 466.957875 
L 443.186428 467.255345 
L 443.833111 471.327246 
L 444.156473 471.916207 
L 444.479815 473.247583 
L 444.803157 472.557421 
L 445.773222 461.870807 
L 446.096564 459.738996 
L 446.419906 455.493011 
L 447.06661 451.56513 
L 447.389951 449.679137 
L 447.713313 450.954867 
L 448.359997 458.975119 
L 449.006701 469.640136 
L 449.330042 472.819532 
L 449.976746 475.831748 
L 450.300088 475.302304 
L 450.62345 475.005197 
L 450.946791 473.090118 
L 451.270133 468.674452 
L 452.240179 450.63136 
L 452.563541 446.321727 
L 453.210224 447.281305 
L 453.533586 446.133151 
L 453.856928 444.569267 
L 454.18027 441.222101 
L 454.503631 439.514074 
L 454.826973 439.420703 
L 455.150315 441.096615 
L 455.473677 444.298679 
L 455.797019 445.994583 
L 456.12036 445.572684 
L 456.443722 444.002472 
L 457.090406 436.764687 
L 457.413768 431.311283 
L 457.737109 428.732401 
L 458.060471 429.440841 
L 458.383813 432.579044 
L 459.030517 443.316083 
L 459.6772 452.376191 
L 460.323904 458.643028 
L 460.647246 458.837525 
L 460.970608 460.373769 
L 461.293949 463.721569 
L 461.617291 465.835202 
L 462.587337 465.865044 
L 721 465.865044 
L 721 465.865044 
" clip-path="url(#pda6a5f2ebd)" style="fill: none; stroke: #1f77b4; stroke-width: 1.5; stroke-linecap: square"/>
   </g>
   <g id="matplotlib.axis_15">
    <g id="xtick_8">
     <g id="line2d_24">
      <g>
       <use xlink:href="#m1ac320e868" x="648" y="514.08" style="stroke: #000000; stroke-width: 0.8"/>
      </g>
     </g>
     <g id="text_8">
      <!-- 0 -->
      <g transform="translate(644.81875 528.678438)scale(0.1 -0.1)">
       <use xlink:href="#DejaVuSans-30"/>
      </g>
     </g>
    </g>
    <g id="xtick_9">
     <g id="line2d_25">
      <g>
       <use xlink:href="#m1ac320e868" x="605.727273" y="514.08" style="stroke: #000000; stroke-width: 0.8"/>
      </g>
     </g>
     <g id="text_9">
      <!-- 1 -->
      <g transform="translate(602.546023 528.678438)scale(0.1 -0.1)">
       <use xlink:href="#DejaVuSans-31"/>
      </g>
     </g>
    </g>
    <g id="xtick_10">
     <g id="line2d_26">
      <g>
       <use xlink:href="#m1ac320e868" x="563.454545" y="514.08" style="stroke: #000000; stroke-width: 0.8"/>
      </g>
     </g>
     <g id="text_10">
      <!-- 2 -->
      <g transform="translate(560.273295 528.678438)scale(0.1 -0.1)">
       <use xlink:href="#DejaVuSans-32"/>
      </g>
     </g>
    </g>
    <g id="xtick_11">
     <g id="line2d_27">
      <g>
       <use xlink:href="#m1ac320e868" x="521.181818" y="514.08" style="stroke: #000000; stroke-width: 0.8"/>
      </g>
     </g>
     <g id="text_11">
      <!-- 3 -->
      <g transform="translate(518.000568 528.678438)scale(0.1 -0.1)">
       <use xlink:href="#DejaVuSans-33"/>
      </g>
     </g>
    </g>
    <g id="xtick_12">
     <g id="line2d_28">
      <g>
       <use xlink:href="#m1ac320e868" x="478.909091" y="514.08" style="stroke: #000000; stroke-width: 0.8"/>
      </g>
     </g>
     <g id="text_12">
      <!-- 4 -->
      <g transform="translate(475.727841 528.678438)scale(0.1 -0.1)">
       <use xlink:href="#DejaVuSans-34"/>
      </g>
     </g>
    </g>
    <g id="xtick_13">
     <g id="line2d_29">
      <g>
       <use xlink:href="#m1ac320e868" x="436.636364" y="514.08" style="stroke: #000000; stroke-width: 0.8"/>
      </g>
     </g>
     <g id="text_13">
      <!-- 5 -->
      <g transform="translate(433.455114 528.678438)scale(0.1 -0.1)">
       <use xlink:href="#DejaVuSans-35"/>
      </g>
     </g>
    </g>
    <g id="xtick_14">
     <g id="line2d_30">
      <g>
       <use xlink:href="#m1ac320e868" x="394.363636" y="514.08" style="stroke: #000000; stroke-width: 0.8"/>
      </g>
     </g>
     <g id="text_14">
      <!-- 6 -->
      <g transform="translate(391.182386 528.678438)scale(0.1 -0.1)">
       <use xlink:href="#DejaVuSans-36"/>
      </g>
     </g>
    </g>
   </g>
   <g id="matplotlib.axis_16"/>
   <g id="patch_38">
    <path d="M 394.363636 514.08 
L 394.363636 417.650087 
" style="fill: none; stroke: #000000; stroke-width: 0.8; stroke-linejoin: miter; stroke-linecap: square"/>
   </g>
   <g id="patch_39">
    <path d="M 648 514.08 
L 648 417.650087 
" style="fill: none; stroke: #000000; stroke-width: 0.8; stroke-linejoin: miter; stroke-linecap: square"/>
   </g>
   <g id="patch_40">
    <path d="M 394.363636 514.08 
L 648 514.08 
" style="fill: none; stroke: #000000; stroke-width: 0.8; stroke-linejoin: miter; stroke-linecap: square"/>
   </g>
   <g id="patch_41">
    <path d="M 394.363636 417.650087 
L 648 417.650087 
" style="fill: none; stroke: #000000; stroke-width: 0.8; stroke-linejoin: miter; stroke-linecap: square"/>
   </g>
  </g>
 </g>
 <defs>
  <clipPath id="p62fb1c981b">
   <rect x="90" y="70.5024" width="253.636364" height="96.429913"/>
  </clipPath>
  <clipPath id="p0a6f037fe7">
   <rect x="394.363636" y="70.5024" width="253.636364" height="96.429913"/>
  </clipPath>
  <clipPath id="pf19122348c">
   <rect x="90" y="186.218296" width="253.636364" height="96.429913"/>
  </clipPath>
  <clipPath id="paa623e1f32">
   <rect x="394.363636" y="186.218296" width="253.636364" height="96.429913"/>
  </clipPath>
  <clipPath id="p16728595ae">
   <rect x="90" y="301.934191" width="253.636364" height="96.429913"/>
  </clipPath>
  <clipPath id="p610651db72">
   <rect x="394.363636" y="301.934191" width="253.636364" height="96.429913"/>
  </clipPath>
  <clipPath id="p051476e5dd">
   <rect x="90" y="417.650087" width="253.636364" height="96.429913"/>
  </clipPath>
  <clipPath id="pda6a5f2ebd">
   <rect x="394.363636" y="417.650087" width="253.636364" height="96.429913"/>
  </clipPath>
 </defs>
</svg>
